<?xml version="1.0" encoding="UTF-8"?>
<svg version="1.1" xmlns="http://www.w3.org/2000/svg" width="1252" height="313">
<path d="M0 0 C413.16 0 826.32 0 1252 0 C1252 103.29 1252 206.58 1252 313 C838.84 313 425.68 313 0 313 C0 209.71 0 106.42 0 0 Z " fill="#FEFEFE" transform="translate(0,0)"/>
<path d="M0 0 C2.97 0 5.94 0 9 0 C10.04058368 35.58187327 10.08834678 71.15575669 10.0625 106.75 C10.06164398 107.93714222 10.06078796 109.12428444 10.05990601 110.34740067 C10.04838781 125.23161505 10.02813128 140.11580811 10 155 C6.7 155 3.4 155 0 155 C0 103.85 0 52.7 0 0 Z " fill="#3EA764" transform="translate(434,96)"/>
<path d="M0 0 C3.96 0 7.92 0 12 0 C13.6710825 3.78977639 15.33704298 7.58166021 17 11.375 C17.47695313 12.45523438 17.95390625 13.53546875 18.4453125 14.6484375 C18.89648438 15.6796875 19.34765625 16.7109375 19.8125 17.7734375 C20.23144531 18.72653809 20.65039062 19.67963867 21.08203125 20.66162109 C22 23 22 23 22 25 C24.72787462 22.60487755 26.01151504 20.19490777 27.48046875 16.89453125 C27.92197266 15.91162109 28.36347656 14.92871094 28.81835938 13.91601562 C29.27017578 12.89185547 29.72199219 11.86769531 30.1875 10.8125 C30.88262695 9.25885742 30.88262695 9.25885742 31.59179688 7.67382812 C32.73401716 5.11855182 33.86980523 2.56061238 35 0 C36.81242052 -0.02687279 38.62495233 -0.04633715 40.4375 -0.0625 C41.44683594 -0.07410156 42.45617187 -0.08570313 43.49609375 -0.09765625 C46 0 46 0 47 1 C47.09804851 2.4067522 47.12798186 3.81835136 47.12939453 5.22851562 C47.13254669 6.12614624 47.13569885 7.02377686 47.13894653 7.9486084 C47.1369223 8.92463013 47.13489807 9.90065186 47.1328125 10.90625 C47.13376923 11.9012854 47.13472595 12.8963208 47.13571167 13.92150879 C47.1363936 16.02986718 47.13453844 18.13822765 47.13037109 20.24658203 C47.12502303 23.48605027 47.13031567 26.72537985 47.13671875 29.96484375 C47.13605797 32.00781281 47.13477681 34.05078178 47.1328125 36.09375 C47.13483673 37.06977173 47.13686096 38.04579346 47.13894653 39.0513916 C47.13421829 40.39783752 47.13421829 40.39783752 47.12939453 41.77148438 C47.12859894 42.56566772 47.12780334 43.35985107 47.12698364 44.17810059 C47 46 47 46 46 47 C43.36 47 40.72 47 38 47 C38 38.75 38 30.5 38 22 C35.33815731 24.66184269 34.37987058 25.94161062 32.95703125 29.23046875 C32.60576172 30.03291016 32.25449219 30.83535156 31.89257812 31.66210938 C31.53615234 32.49548828 31.17972656 33.32886719 30.8125 34.1875 C30.44447266 35.03248047 30.07644531 35.87746094 29.69726562 36.74804688 C28.7918278 38.82937797 27.89302209 40.91331882 27 43 C24.69 43 22.38 43 20 43 C18.49373883 39.87797994 16.99606757 36.75191601 15.5 33.625 C15.07074219 32.73554688 14.64148438 31.84609375 14.19921875 30.9296875 C13.79316406 30.07890625 13.38710938 29.228125 12.96875 28.3515625 C12.59169922 27.56604004 12.21464844 26.78051758 11.82617188 25.97119141 C11 24 11 24 11 22 C10.34 22 9.68 22 9 22 C9.00523682 22.72179443 9.01047363 23.44358887 9.01586914 24.18725586 C9.03657358 27.43732849 9.04963918 30.68738728 9.0625 33.9375 C9.07087891 35.07380859 9.07925781 36.21011719 9.08789062 37.38085938 C9.09111328 38.46044922 9.09433594 39.54003906 9.09765625 40.65234375 C9.10289307 41.65257568 9.10812988 42.65280762 9.11352539 43.68334961 C9 46 9 46 8 47 C5.36 47 2.72 47 0 47 C0 31.49 0 15.98 0 0 Z " fill="#292527" transform="translate(495,152)"/>
<path d="M0 0 C1.4540625 -0.04350586 1.4540625 -0.04350586 2.9375 -0.08789062 C10.43350892 -0.15337995 16.90903091 0.94208947 22.53515625 6.22265625 C24.46842166 10.41009347 24.09942985 14.82343646 23.5 19.3125 C21.23458525 23.42380825 18.95217009 24.9521147 14.5 26.3125 C16.43799114 32.12647343 18.96956923 36.9624163 22.29296875 42.11328125 C23.5 44.3125 23.5 44.3125 23.5 47.3125 C20.34635753 47.88015564 17.63591512 48.04884789 14.5 47.3125 C11.79863623 44.72139598 10.23423866 41.60273612 8.5 38.3125 C7.44973802 36.45137399 6.38747827 34.59696021 5.3125 32.75 C4.84457031 31.90308594 4.37664062 31.05617187 3.89453125 30.18359375 C3.43433594 29.56613281 2.97414063 28.94867188 2.5 28.3125 C1.51 28.3125 0.52 28.3125 -0.5 28.3125 C-0.83 34.5825 -1.16 40.8525 -1.5 47.3125 C-4.47 47.3125 -7.44 47.3125 -10.5 47.3125 C-12.05906782 45.75343218 -11.62722371 44.25095719 -11.62939453 42.08398438 C-11.63254669 41.18635376 -11.63569885 40.28872314 -11.63894653 39.3638916 C-11.6369223 38.38786987 -11.63489807 37.41184814 -11.6328125 36.40625 C-11.63376923 35.4112146 -11.63472595 34.4161792 -11.63571167 33.39099121 C-11.6363936 31.28263282 -11.63453844 29.17427235 -11.63037109 27.06591797 C-11.62502303 23.82644973 -11.63031567 20.58712015 -11.63671875 17.34765625 C-11.63605797 15.30468719 -11.63477681 13.26171822 -11.6328125 11.21875 C-11.63483673 10.24272827 -11.63686096 9.26670654 -11.63894653 8.2611084 C-11.63579437 7.36347778 -11.63264221 6.46584717 -11.62939453 5.54101562 C-11.62859894 4.74683228 -11.62780334 3.95264893 -11.62698364 3.13439941 C-11.28548929 -1.76519511 -3.67817309 0.03554935 0 0 Z " fill="#2E2A2C" transform="translate(463.5,151.6875)"/>
<path d="M0 0 C3.61463154 0.0392545 4.96674613 0.31621034 7.61279297 2.84130859 C9.71308793 5.79606654 11.56343342 8.80701879 13.37109375 11.94921875 C14.01626953 13.00431641 14.66144531 14.05941406 15.32617188 15.14648438 C17.61760856 18.91013944 19.83799196 22.71044516 22.01000977 26.54418945 C23.24209966 28.87892151 23.24209966 28.87892151 25.43359375 29.76171875 C25.43359375 20.19171875 25.43359375 10.62171875 25.43359375 0.76171875 C28.07359375 0.76171875 30.71359375 0.76171875 33.43359375 0.76171875 C34.99266157 2.32078657 34.56081746 3.82326156 34.56298828 5.99023438 C34.56614044 6.88786499 34.5692926 7.78549561 34.57254028 8.71032715 C34.57051605 9.68634888 34.56849182 10.66237061 34.56640625 11.66796875 C34.56736298 12.66300415 34.5683197 13.65803955 34.56930542 14.68322754 C34.56998735 16.79158593 34.56813219 18.8999464 34.56396484 21.00830078 C34.55861678 24.24776902 34.56390942 27.4870986 34.5703125 30.7265625 C34.56965172 32.76953156 34.56837056 34.81250053 34.56640625 36.85546875 C34.56843048 37.83149048 34.57045471 38.80751221 34.57254028 39.81311035 C34.56781204 41.15955627 34.56781204 41.15955627 34.56298828 42.53320312 C34.56219269 43.32738647 34.56139709 44.12156982 34.56057739 44.93981934 C34.43359375 46.76171875 34.43359375 46.76171875 33.43359375 47.76171875 C30.25819088 48.54534821 27.60213168 48.60044938 24.43359375 47.76171875 C21.37214702 44.93055784 19.53237028 41.33463594 17.43359375 37.76171875 C15.99594743 35.50685128 14.53700905 33.26668337 13.07568359 31.02709961 C11.18197882 28.12132636 9.31325227 25.19979661 7.44580078 22.27709961 C6.51744027 20.78048473 6.51744027 20.78048473 5.43359375 19.76171875 C5.4085376 20.57439209 5.38348145 21.38706543 5.35766602 22.22436523 C5.24210257 25.88282627 5.11919791 29.54100403 4.99609375 33.19921875 C4.93711914 35.11831055 4.93711914 35.11831055 4.87695312 37.07617188 C4.83505859 38.29111328 4.79316406 39.50605469 4.75 40.7578125 C4.69501343 42.44668579 4.69501343 42.44668579 4.63891602 44.16967773 C4.43359375 46.76171875 4.43359375 46.76171875 3.43359375 47.76171875 C1.62109375 47.89453125 1.62109375 47.89453125 -0.56640625 47.88671875 C-1.28828125 47.88929688 -2.01015625 47.891875 -2.75390625 47.89453125 C-4.56640625 47.76171875 -4.56640625 47.76171875 -5.56640625 46.76171875 C-5.66445476 45.35496655 -5.69438811 43.94336739 -5.69580078 42.53320312 C-5.69895294 41.63557251 -5.7021051 40.73794189 -5.70535278 39.81311035 C-5.70332855 38.83708862 -5.70130432 37.86106689 -5.69921875 36.85546875 C-5.70017548 35.86043335 -5.7011322 34.86539795 -5.70211792 33.84020996 C-5.70279985 31.73185157 -5.70094469 29.6234911 -5.69677734 27.51513672 C-5.69142928 24.27566848 -5.69672192 21.0363389 -5.703125 17.796875 C-5.70246422 15.75390594 -5.70118306 13.71093697 -5.69921875 11.66796875 C-5.70124298 10.69194702 -5.70326721 9.71592529 -5.70535278 8.71032715 C-5.70220062 7.81269653 -5.69904846 6.91506592 -5.69580078 5.99023438 C-5.69500519 5.19605103 -5.69420959 4.40186768 -5.69338989 3.58361816 C-5.44750542 0.05578763 -3.10901486 0.32877825 0 0 Z " fill="#302C2E" transform="translate(602.56640625,151.23828125)"/>
<path d="M0 0 C3.01220768 0.07104263 4.38475505 0.24389339 6.640625 2.28515625 C8.56166709 5.00352406 10.2153672 7.80046481 11.875 10.6875 C13.30210162 13.05733153 14.74166219 15.41924842 16.18408203 17.77978516 C17.1798396 19.4158805 18.16664404 21.0574613 19.14404297 22.70458984 C19.5979541 23.46336426 20.05186523 24.22213867 20.51953125 25.00390625 C20.92534424 25.68912354 21.33115723 26.37434082 21.74926758 27.08032227 C22.79629706 28.84649154 22.79629706 28.84649154 24.875 29.6875 C24.86714478 28.42305054 24.86714478 28.42305054 24.85913086 27.13305664 C24.84212174 24.01522064 24.82956594 20.89740823 24.82006836 17.77954102 C24.81502943 16.42829614 24.80819823 15.07705674 24.79956055 13.72583008 C24.78747581 11.78729566 24.78230172 9.848722 24.77734375 7.91015625 C24.77210693 6.74234619 24.76687012 5.57453613 24.76147461 4.37133789 C24.875 1.6875 24.875 1.6875 25.875 0.6875 C29.375 0.5625 29.375 0.5625 32.875 0.6875 C34.43406782 2.24656782 34.00222371 3.74904281 34.00439453 5.91601562 C34.00754669 6.81364624 34.01069885 7.71127686 34.01394653 8.6361084 C34.0119223 9.61213013 34.00989807 10.58815186 34.0078125 11.59375 C34.00876923 12.5887854 34.00972595 13.5838208 34.01071167 14.60900879 C34.0113936 16.71736718 34.00953844 18.82572765 34.00537109 20.93408203 C34.00002303 24.17355027 34.00531567 27.41287985 34.01171875 30.65234375 C34.01105797 32.69531281 34.00977681 34.73828178 34.0078125 36.78125 C34.00983673 37.75727173 34.01186096 38.73329346 34.01394653 39.7388916 C34.00921829 41.08533752 34.00921829 41.08533752 34.00439453 42.45898438 C34.00359894 43.25316772 34.00280334 44.04735107 34.00198364 44.86560059 C33.875 46.6875 33.875 46.6875 32.875 47.6875 C29.66131918 48.57312555 27.07763823 48.64461028 23.875 47.6875 C20.55600103 44.37004691 18.34638692 40.4784997 16 36.4375 C14.71124781 34.3279354 13.42219693 32.21855323 12.1328125 30.109375 C11.5773877 29.16674805 11.02196289 28.22412109 10.44970703 27.25292969 C8.93740314 24.68830859 8.93740314 24.68830859 7.17138672 22.47363281 C5.875 20.6875 5.875 20.6875 5.875 18.6875 C5.215 18.6875 4.555 18.6875 3.875 18.6875 C3.88023682 19.53046631 3.88547363 20.37343262 3.89086914 21.24194336 C3.90787826 24.35977936 3.92043406 27.47759177 3.92993164 30.59545898 C3.93497057 31.94670386 3.94180177 33.29794326 3.95043945 34.64916992 C3.96252419 36.58770434 3.96769828 38.526278 3.97265625 40.46484375 C3.97789307 41.63265381 3.98312988 42.80046387 3.98852539 44.00366211 C3.875 46.6875 3.875 46.6875 2.875 47.6875 C0.20441149 47.82865161 -2.44932238 47.72997107 -5.125 47.6875 C-5.15027002 41.15471214 -5.16783292 34.62193679 -5.17993164 28.08911133 C-5.18497317 25.86482268 -5.19180623 23.64053737 -5.20043945 21.41625977 C-5.21251298 18.22671691 -5.21822996 15.03721771 -5.22265625 11.84765625 C-5.22781754 10.84662369 -5.23297882 9.84559113 -5.23829651 8.81422424 C-5.23837204 7.89334518 -5.23844757 6.97246613 -5.23852539 6.02368164 C-5.240746 5.20871719 -5.24296661 4.39375275 -5.24525452 3.55409241 C-5.02510053 0.13685898 -3.05107362 0.31544998 0 0 Z " fill="#2B2729" transform="translate(390.125,151.3125)"/>
<path d="M0 0 C0.721875 0.00257813 1.44375 0.00515625 2.1875 0.0078125 C2.909375 0.00523437 3.63125 0.00265625 4.375 0 C6.1875 0.1328125 6.1875 0.1328125 7.1875 1.1328125 C7.27401611 2.54851373 7.29454904 3.9684075 7.28515625 5.38671875 C7.28193359 6.24072266 7.27871094 7.09472656 7.27539062 7.97460938 C7.26701172 8.87244141 7.25863281 9.77027344 7.25 10.6953125 C7.24548828 11.59701172 7.24097656 12.49871094 7.23632812 13.42773438 C7.22450244 15.66278839 7.20656638 17.89780852 7.1875 20.1328125 C13.1275 20.1328125 19.0675 20.1328125 25.1875 20.1328125 C25.17589844 18.77285156 25.16429687 17.41289062 25.15234375 16.01171875 C25.14296738 14.2395847 25.13386702 12.46744917 25.125 10.6953125 C25.11662109 9.79748047 25.10824219 8.89964844 25.09960938 7.97460938 C25.09477539 6.69360352 25.09477539 6.69360352 25.08984375 5.38671875 C25.08198853 4.20057983 25.08198853 4.20057983 25.07397461 2.99047852 C25.1875 1.1328125 25.1875 1.1328125 26.1875 0.1328125 C28 0 28 0 30.1875 0.0078125 C30.909375 0.00523437 31.63125 0.00265625 32.375 0 C34.1875 0.1328125 34.1875 0.1328125 35.1875 1.1328125 C35.28554851 2.5395647 35.31548186 3.95116386 35.31689453 5.36132812 C35.32004669 6.25895874 35.32319885 7.15658936 35.32644653 8.0814209 C35.3244223 9.05744263 35.32239807 10.03346436 35.3203125 11.0390625 C35.32126923 12.0340979 35.32222595 13.0291333 35.32321167 14.05432129 C35.3238936 16.16267968 35.32203844 18.27104015 35.31787109 20.37939453 C35.31252303 23.61886277 35.31781567 26.85819235 35.32421875 30.09765625 C35.32355797 32.14062531 35.32227681 34.18359428 35.3203125 36.2265625 C35.32233673 37.20258423 35.32436096 38.17860596 35.32644653 39.1842041 C35.32171829 40.53065002 35.32171829 40.53065002 35.31689453 41.90429688 C35.31609894 42.69848022 35.31530334 43.49266357 35.31448364 44.31091309 C35.1875 46.1328125 35.1875 46.1328125 34.1875 47.1328125 C32.375 47.265625 32.375 47.265625 30.1875 47.2578125 C29.465625 47.26039063 28.74375 47.26296875 28 47.265625 C26.1875 47.1328125 26.1875 47.1328125 25.1875 46.1328125 C25.10118126 44.79013837 25.08043527 43.44306928 25.08984375 42.09765625 C25.09234131 41.36925537 25.09483887 40.64085449 25.09741211 39.89038086 C25.10651611 38.9597583 25.11562012 38.02913574 25.125 37.0703125 C25.145625 34.1209375 25.16625 31.1715625 25.1875 28.1328125 C19.2475 28.1328125 13.3075 28.1328125 7.1875 28.1328125 C7.22707769 34.01164253 7.22707769 34.01164253 7.27758789 39.89038086 C7.28008545 40.61878174 7.28258301 41.34718262 7.28515625 42.09765625 C7.29039307 42.846521 7.29562988 43.59538574 7.30102539 44.36694336 C7.1875 46.1328125 7.1875 46.1328125 6.1875 47.1328125 C4.375 47.265625 4.375 47.265625 2.1875 47.2578125 C1.465625 47.26039063 0.74375 47.26296875 0 47.265625 C-1.8125 47.1328125 -1.8125 47.1328125 -2.8125 46.1328125 C-2.91054851 44.7260603 -2.94048186 43.31446114 -2.94189453 41.90429688 C-2.94504669 41.00666626 -2.94819885 40.10903564 -2.95144653 39.1842041 C-2.9494223 38.20818237 -2.94739807 37.23216064 -2.9453125 36.2265625 C-2.94626923 35.2315271 -2.94722595 34.2364917 -2.94821167 33.21130371 C-2.9488936 31.10294532 -2.94703844 28.99458485 -2.94287109 26.88623047 C-2.93752303 23.64676223 -2.94281567 20.40743265 -2.94921875 17.16796875 C-2.94855797 15.12499969 -2.94727681 13.08203072 -2.9453125 11.0390625 C-2.94733673 10.06304077 -2.94936096 9.08701904 -2.95144653 8.0814209 C-2.94829437 7.18379028 -2.94514221 6.28615967 -2.94189453 5.36132812 C-2.94109894 4.56714478 -2.94030334 3.77296143 -2.93948364 2.95471191 C-2.76706617 0.48095007 -2.4729839 0.18121003 0 0 Z " fill="#2F2B2D" transform="translate(339.8125,151.8671875)"/>
<path d="M0 0 C3.625 0.5 3.625 0.5 5.8125 2.75 C7.99252541 6.6851306 9.21223075 11.01672621 10.5625 15.2890625 C12.65064677 21.59956487 15.37721468 27.66691365 18.0546875 33.74609375 C18.51101563 34.79925781 18.96734375 35.85242188 19.4375 36.9375 C19.85644531 37.88496094 20.27539062 38.83242187 20.70703125 39.80859375 C21.64493199 42.5584389 21.80801864 44.61876371 21.625 47.5 C18.375 48.3125 18.375 48.3125 14.625 48.5 C10.58769728 44.99392132 10.54205562 43.0023337 9.625 37.5 C3.355 37.5 -2.915 37.5 -9.375 37.5 C-9.87 39.975 -9.87 39.975 -10.375 42.5 C-12.775 46.9 -12.775 46.9 -14.375 48.5 C-17.375 48.625 -17.375 48.625 -20.375 48.5 C-20.705 48.17 -21.035 47.84 -21.375 47.5 C-21.05076791 40.36689404 -18.02958822 34.04222481 -15.375 27.5 C-14.72902806 25.87505509 -14.08318315 24.25005968 -13.4375 22.625 C-12.96376953 21.45324219 -12.96376953 21.45324219 -12.48046875 20.2578125 C-11.59499425 18.04881958 -10.72540976 15.83531106 -9.86328125 13.6171875 C-9.59700928 12.93769043 -9.3307373 12.25819336 -9.05639648 11.55810547 C-8.52707683 10.20716249 -8.00171395 8.85466114 -7.48071289 7.50048828 C-4.80765436 0.71224509 -4.80765436 0.71224509 0 0 Z " fill="#312D2F" transform="translate(569.375,151.5)"/>
<path d="M0 0 C10.23 0 20.46 0 31 0 C31 2.64 31 5.28 31 8 C30 9 30 9 27.95874023 9.11352539 C27.08419189 9.10828857 26.20964355 9.10305176 25.30859375 9.09765625 C24.36435547 9.09443359 23.42011719 9.09121094 22.44726562 9.08789062 C21.45404297 9.07951172 20.46082031 9.07113281 19.4375 9.0625 C18.44041016 9.05798828 17.44332031 9.05347656 16.41601562 9.04882812 C13.94398513 9.03700023 11.47198528 9.01906415 9 9 C9 12.3 9 15.6 9 19 C10.28777344 18.98839844 11.57554687 18.97679687 12.90234375 18.96484375 C14.58072772 18.9554673 16.25911326 18.94636695 17.9375 18.9375 C19.21270508 18.92493164 19.21270508 18.92493164 20.51367188 18.91210938 C21.32255859 18.90888672 22.13144531 18.90566406 22.96484375 18.90234375 C23.7137085 18.89710693 24.46257324 18.89187012 25.23413086 18.88647461 C27 19 27 19 28 20 C28.125 23.5 28.125 23.5 28 27 C27 28 27 28 25.23413086 28.11352539 C24.48526611 28.10828857 23.73640137 28.10305176 22.96484375 28.09765625 C22.15595703 28.09443359 21.34707031 28.09121094 20.51367188 28.08789062 C19.66353516 28.07951172 18.81339844 28.07113281 17.9375 28.0625 C17.08349609 28.05798828 16.22949219 28.05347656 15.34960938 28.04882812 C13.23304337 28.03700373 11.11651315 28.01906769 9 28 C9 31.3 9 34.6 9 38 C10.50433594 37.98839844 12.00867188 37.97679687 13.55859375 37.96484375 C15.51822793 37.95546751 17.47786345 37.94636713 19.4375 37.9375 C20.92733398 37.92493164 20.92733398 37.92493164 22.44726562 37.91210938 C23.39150391 37.90888672 24.33574219 37.90566406 25.30859375 37.90234375 C26.18314209 37.89710693 27.05769043 37.89187012 27.95874023 37.88647461 C30 38 30 38 31 39 C31 41.64 31 44.28 31 47 C20.77 47 10.54 47 0 47 C0 31.49 0 15.98 0 0 Z " fill="#2B282A" transform="translate(255,152)"/>
<path d="M0 0 C2.53055421 1.3410254 4.64584239 3.0160808 6.76171875 4.93359375 C5.6099852 7.40159422 4.7138831 8.9814294 2.76171875 10.93359375 C0.16146825 10.65988317 -1.82106261 10.1590473 -4.125 8.9140625 C-7.75240961 7.23110536 -11.33453433 7.25043804 -15.23828125 7.93359375 C-18.96070817 10.7056138 -21.13592598 13.42395856 -22.23828125 17.93359375 C-23.07694312 24.48422299 -22.36121868 28.8645443 -18.625 34.33984375 C-17.13679263 36.19162678 -17.13679263 36.19162678 -14.23828125 37.93359375 C-8.74733194 38.14952996 -4.84870388 36.83157369 -0.23828125 33.93359375 C2.34627391 34.08562641 3.48649765 34.73429571 5.57421875 36.24609375 C6.76171875 37.93359375 6.76171875 37.93359375 6.6015625 39.8671875 C5.13844254 43.46714313 2.17445158 44.37786313 -1.21484375 45.94140625 C-7.24631494 47.92072625 -13.66663868 48.28875074 -19.66796875 46.01171875 C-25.6629384 42.52784959 -30.0946719 37.58257674 -32.23828125 30.93359375 C-32.95817172 22.07258896 -33.18642858 13.19202878 -27.98828125 5.68359375 C-19.89921312 -2.40547438 -10.59708866 -4.49247775 0 0 Z " fill="#2D2A2B" transform="translate(323.23828125,153.06640625)"/>
<path d="M0 0 C0.73541016 0.00202423 1.47082031 0.00404846 2.22851562 0.00613403 C2.97939453 0.00517731 3.73027344 0.00422058 4.50390625 0.00323486 C6.09440189 0.00255315 7.6849003 0.00440682 9.27539062 0.00857544 C11.71816217 0.01392386 14.16074984 0.00863019 16.60351562 0.00222778 C18.1451827 0.00288857 19.68684966 0.00416973 21.22851562 0.00613403 C21.96392578 0.0041098 22.69933594 0.00208557 23.45703125 0 C28.61356402 0.02399493 28.61356402 0.02399493 29.72851562 1.13894653 C29.85351562 4.63894653 29.85351562 4.63894653 29.72851562 8.13894653 C28.72851562 9.13894653 28.72851562 9.13894653 26.00585938 9.23660278 C24.35263672 9.21920044 24.35263672 9.21920044 22.66601562 9.20144653 C21.56128906 9.1924231 20.4565625 9.18339966 19.31835938 9.17410278 C18.46371094 9.16250122 17.6090625 9.15089966 16.72851562 9.13894653 C16.73637085 10.81235107 16.73637085 10.81235107 16.74438477 12.51956177 C16.76243338 16.64373986 16.77394711 20.76791444 16.78344727 24.89212036 C16.78848781 26.67988674 16.79532017 28.46764898 16.80395508 30.25540161 C16.81603293 32.81945822 16.82174657 35.38346051 16.82617188 37.94754028 C16.83133316 38.75170883 16.83649445 39.55587738 16.84181213 40.38441467 C16.84200777 42.30296368 16.79053545 44.22140022 16.72851562 46.13894653 C15.72851562 47.13894653 15.72851562 47.13894653 13.91601562 47.27175903 C13.19414062 47.26918091 12.47226563 47.26660278 11.72851562 47.26394653 C11.00664062 47.26652466 10.28476563 47.26910278 9.54101562 47.27175903 C7.72851562 47.13894653 7.72851562 47.13894653 6.72851562 46.13894653 C6.63992917 43.40000568 6.61328084 40.68641383 6.63085938 37.94754028 C6.63227432 37.12770157 6.63368927 36.30786285 6.63514709 35.46318054 C6.64076273 32.83423271 6.65331783 30.2053688 6.66601562 27.57644653 C6.67102861 25.79845297 6.67559187 24.02045807 6.6796875 22.24246216 C6.69073724 17.87459108 6.70801231 13.50678305 6.72851562 9.13894653 C5.87386719 9.1505481 5.01921875 9.16214966 4.13867188 9.17410278 C3.03394531 9.18312622 1.92921875 9.19214966 0.79101562 9.20144653 C-0.31113281 9.2130481 -1.41328125 9.22464966 -2.54882812 9.23660278 C-5.27148438 9.13894653 -5.27148438 9.13894653 -6.27148438 8.13894653 C-6.39648438 4.63894653 -6.39648438 4.63894653 -6.27148438 1.13894653 C-4.53855458 -0.59398326 -2.30934102 0.01074607 0 0 Z " fill="#333032" transform="translate(219.271484375,151.86105346679688)"/>
<path d="M0 0 C2.97 0 5.94 0 9 0 C9 17.16 9 34.32 9 52 C6.03 52 3.06 52 0 52 C0 34.84 0 17.68 0 0 Z " fill="#2AA6C7" transform="translate(434,96)"/>
<path d="M0 0 C2.97 0 5.94 0 9 0 C9 16.83 9 33.66 9 51 C6.03 51 3.06 51 0 51 C0 34.17 0 17.34 0 0 Z " fill="#262124" transform="translate(434,148)"/>
<path d="M0 0 C4.28834613 2.46182833 4.28834613 2.46182833 6 5 C6.7505893 8.14451426 6.68543359 10.84700549 6 14 C4.20606332 16.87029869 3.01736724 18.49131638 0 20 C-3.3125 20.4375 -3.3125 20.4375 -7 20 C-10.01066181 17.43773463 -11.59121046 15.83955295 -12.4453125 11.99609375 C-12.65541713 8.30525566 -12.10705321 6.16771669 -10.125 3.0625 C-6.78220282 -0.18197961 -4.62268262 -0.53338646 0 0 Z " fill="#29B1D1" transform="translate(906,169)"/>
<path d="M0 0 C0.66 0 1.32 0 2 0 C2.66 2.97 3.32 5.94 4 9 C6.97 9 9.94 9 13 9 C12 12 12 12 9.875 13.125 C7.74957577 14.81642919 7.74957577 14.81642919 7.9609375 17.19140625 C8.22637452 19.48349075 8.56308666 21.73469932 9 24 C6.08482708 22.92598892 4.22189824 22.22189824 2 20 C-1.48864279 20.36089408 -4.09032693 22.1410422 -7 24 C-6.93039062 23.40832031 -6.86078125 22.81664063 -6.7890625 22.20703125 C-6.33473564 17.45959435 -6.33473564 17.45959435 -8.3359375 13.359375 C-9.84717522 12.18160288 -11.4211506 11.08545896 -13 10 C-13 9.34 -13 8.68 -13 8 C-9.37 8 -5.74 8 -2 8 C-1.7834375 6.576875 -1.7834375 6.576875 -1.5625 5.125 C-1 2 -1 2 0 0 Z " fill="#36AFCD" transform="translate(438,65)"/>
<path d="M0 0 C3.77380407 0.78620918 5.42070826 1.75093207 8 4.625 C8.8125 8.375 8.8125 8.375 9 11.625 C4.71 11.625 0.42 11.625 -4 11.625 C-3.34 13.275 -2.68 14.925 -2 16.625 C1.3 16.625 4.6 16.625 8 16.625 C7.34 17.945 6.68 19.265 6 20.625 C2.92369721 20.98691797 0.06793935 21.10725134 -3 20.625 C-6.15865026 18.04650999 -7.53510335 16.56142904 -8.47265625 12.65625 C-8.75869433 8.84240891 -8.13144522 6.23127524 -5.875 3.125 C-3 0.625 -3 0.625 0 0 Z " fill="#2FB5D4" transform="translate(874,168.375)"/>
<path d="M0 0 C4.06874335 0.84765487 5.50268796 2.34281847 8 5.625 C8.33 7.605 8.66 9.585 9 11.625 C4.71 11.625 0.42 11.625 -4 11.625 C-3.34 13.605 -2.68 15.585 -2 17.625 C1.3 17.295 4.6 16.965 8 16.625 C7.34 17.945 6.68 19.265 6 20.625 C2.92383235 20.98690208 0.06837196 21.10218828 -3 20.625 C-6.32983304 17.97472472 -7.60097417 16.50470848 -8.47265625 12.3984375 C-8.75047027 8.13862258 -8.35152241 6.13160583 -5.875 2.5625 C-3 0.625 -3 0.625 0 0 Z " fill="#40BAD8" transform="translate(755,168.375)"/>
<path d="M0 0 C1.32 0 2.64 0 4 0 C4 3.3 4 6.6 4 10 C4.99 9.34 5.98 8.68 7 8 C12.11418542 7.46727235 12.11418542 7.46727235 14.67578125 9.0078125 C16.77618434 12.16771096 16.31201218 15.53195006 16.1875 19.1875 C16.16719727 20.31188477 16.16719727 20.31188477 16.14648438 21.45898438 C16.11118539 23.30629767 16.05737917 25.15324066 16 27 C15.01 27 14.02 27 13 27 C12.67 22.38 12.34 17.76 12 13 C9.36 13 6.72 13 4 13 C4 17.62 4 22.24 4 27 C2.68 27 1.36 27 0 27 C0 18.09 0 9.18 0 0 Z " fill="#24B0D1" transform="translate(727,161)"/>
<path d="M0 0 C0.99 0 1.98 0 3 0 C3 21.12 3 42.24 3 64 C2.01 64 1.02 64 0 64 C0 42.88 0 21.76 0 0 Z " fill="#837E82" transform="translate(686,151)"/>
<path d="M0 0 C1.32 0 2.64 0 4 0 C4.33 4.95 4.66 9.9 5 15 C6.98 13.02 8.96 11.04 11 9 C11.99 9.33 12.98 9.66 14 10 C13.1875 11.9375 13.1875 11.9375 12 14 C11.01 14.33 10.02 14.66 9 15 C11.31 18.96 13.62 22.92 16 27 C11 26 11 26 8.8125 22.9375 C8.214375 21.968125 7.61625 20.99875 7 20 C6.34 20 5.68 20 5 20 C4.67 22.64 4.34 25.28 4 28 C2.68 28 1.36 28 0 28 C0 18.76 0 9.52 0 0 Z " fill="#41B6D5" transform="translate(792,161)"/>
<path d="M0 0 C1.32 0 2.64 0 4 0 C5.32 3.3 6.64 6.6 8 10 C9.53521956 7.69717067 10.58357909 5.82137765 11.625 3.3125 C12.07875 2.219375 12.5325 1.12625 13 0 C13.99 0 14.98 0 16 0 C16.41691582 6.33480421 13.5434539 11.34300771 11 17 C10.65453125 17.83273438 10.3090625 18.66546875 9.953125 19.5234375 C9 21.6875 9 21.6875 7 25 C4.25 26 4.25 26 2 26 C2 25.01 2 24.02 2 23 C2.99 22.34 3.98 21.68 5 21 C4.61301964 14.9050594 3.58878097 10.40405616 0.83984375 4.9453125 C0 3 0 3 0 0 Z " fill="#29AFD2" transform="translate(809,170)"/>
<path d="M0 0 C6.93 0 13.86 0 21 0 C21 0.99 21 1.98 21 3 C18.03 3 15.06 3 12 3 C12 10.92 12 18.84 12 27 C10.68 27 9.36 27 8 27 C8 19.08 8 11.16 8 3 C5.36 3 2.72 3 0 3 C0 2.01 0 1.02 0 0 Z " fill="#42B3D7" transform="translate(703,162)"/>
<path d="M0 0 C1.671875 1.01171875 1.671875 1.01171875 3 3 C3.21714241 5.81127043 3.28284276 8.3883345 3.1875 11.1875 C3.16719727 12.31188477 3.16719727 12.31188477 3.14648438 13.45898438 C3.11118539 15.30629767 3.05737917 17.15324066 3 19 C2.01 19 1.02 19 0 19 C-0.33 14.38 -0.66 9.76 -1 5 C-2.98 5 -4.96 5 -7 5 C-8.87824891 6.87824891 -8.39102397 10.03935276 -8.5625 12.5625 C-8.68818359 14.35880859 -8.68818359 14.35880859 -8.81640625 16.19140625 C-8.87699219 17.11824219 -8.93757812 18.04507813 -9 19 C-10.32 19 -11.64 19 -13 19 C-13 13.06 -13 7.12 -13 1 C-12.01 1 -11.02 1 -10 1 C-10 1.66 -10 2.32 -10 3 C-9.46375 2.505 -8.9275 2.01 -8.375 1.5 C-5.33326715 -0.42109443 -3.53950857 -0.45185216 0 0 Z " fill="#40B8DB" transform="translate(859,169)"/>
<path d="M0 0 C1.32 0 2.64 0 4 0 C4 6.6 4 13.2 4 20 C2.68 19.34 1.36 18.68 0 18 C-1.98330173 18.86649466 -1.98330173 18.86649466 -4 20 C-6.5625 20.375 -6.5625 20.375 -9 20 C-11.69139047 17.47521941 -11.99552417 16.05609705 -12.29296875 12.328125 C-12.27316751 10.96843965 -12.23759202 9.6089066 -12.1875 8.25 C-12.17396484 7.55261719 -12.16042969 6.85523438 -12.14648438 6.13671875 C-12.1112945 4.42414459 -12.05749155 2.71197059 -12 1 C-11.01 1 -10.02 1 -9 1 C-8.67 5.62 -8.34 10.24 -8 15 C-3.39467611 16.45314664 -3.39467611 16.45314664 -1 15 C-0.68758629 12.45058627 -0.48696579 9.99638487 -0.375 7.4375 C-0.31699219 6.37112305 -0.31699219 6.37112305 -0.2578125 5.28320312 C-0.16328217 3.52257575 -0.08054183 1.76132272 0 0 Z " fill="#49BAD7" transform="translate(984,169)"/>
<path d="M0 0 C0.33 1.32 0.66 2.64 1 4 C-0.65 4 -2.3 4 -4 4 C-4 5.65 -4 7.3 -4 9 C-2.68 9 -1.36 9 0 9 C0 9.99 0 10.98 0 12 C-1.32 12 -2.64 12 -4 12 C-4 17.28 -4 22.56 -4 28 C-5.32 28 -6.64 28 -8 28 C-8 22.72 -8 17.44 -8 12 C-8.99 12 -9.98 12 -11 12 C-11 11.01 -11 10.02 -11 9 C-10.01 9 -9.02 9 -8 9 C-8.061875 8.071875 -8.12375 7.14375 -8.1875 6.1875 C-8 3 -8 3 -6.8125 1.125 C-4.43963721 -0.34781139 -2.74086056 -0.22223194 0 0 Z " fill="#47B9D7" transform="translate(925,161)"/>
<path d="M0 0 C0.80050781 0.12761719 1.60101562 0.25523437 2.42578125 0.38671875 C3.23402344 0.50660156 4.04226563 0.62648437 4.875 0.75 C5.48988281 0.85699219 6.10476563 0.96398437 6.73828125 1.07421875 C6.73828125 2.06421875 6.73828125 3.05421875 6.73828125 4.07421875 C4.09828125 4.07421875 1.45828125 4.07421875 -1.26171875 4.07421875 C-0.06593352 7.66157443 0.5791103 7.73326858 3.80078125 9.38671875 C5.98046875 10.67578125 5.98046875 10.67578125 7.73828125 12.07421875 C8.42578125 15.26171875 8.42578125 15.26171875 7.73828125 18.07421875 C4.53448108 20.21008553 3.71888158 20.3055405 0.05078125 20.19921875 C-0.75746094 20.18117187 -1.56570313 20.163125 -2.3984375 20.14453125 C-3.01332031 20.12132812 -3.62820313 20.098125 -4.26171875 20.07421875 C-4.59171875 18.75421875 -4.92171875 17.43421875 -5.26171875 16.07421875 C-1.96171875 16.07421875 1.33828125 16.07421875 4.73828125 16.07421875 C4.73828125 15.08421875 4.73828125 14.09421875 4.73828125 13.07421875 C3.64515625 12.80609375 2.55203125 12.53796875 1.42578125 12.26171875 C-3.65541954 10.62539985 -3.65541954 10.62539985 -5.26171875 8.07421875 C-5.69043989 5.21607778 -5.76312274 3.75708323 -4.03125 1.3984375 C-2.26171875 0.07421875 -2.26171875 0.07421875 0 0 Z " fill="#40BBDC" transform="translate(780.26171875,168.92578125)"/>
<path d="M0 0 C1.08152344 -0.01417969 2.16304688 -0.02835938 3.27734375 -0.04296875 C6.0625 0.1875 6.0625 0.1875 8.0625 2.1875 C8.4171585 4.95383632 8.5354263 6.52160711 6.89453125 8.83203125 C4.35143198 10.71359937 2.56550507 10.52003312 -0.5625 10.4375 C-1.54476563 10.42203125 -2.52703125 10.4065625 -3.5390625 10.390625 C-5.9375 10.1875 -5.9375 10.1875 -6.9375 9.1875 C-7.0703125 7.375 -7.0703125 7.375 -7.0625 5.1875 C-7.06507813 4.465625 -7.06765625 3.74375 -7.0703125 3 C-6.77132471 -1.08030394 -3.3512357 0.01992411 0 0 Z " fill="#F0EFF0" transform="translate(468.9375,160.8125)"/>
<path d="M0 0 C6.93 0 13.86 0 21 0 C21 0.99 21 1.98 21 3 C18.03 3 15.06 3 12 3 C12 10.59 12 18.18 12 26 C11.01 26 10.02 26 9 26 C9 18.41 9 10.82 9 3 C6.03 3 3.06 3 0 3 C0 2.01 0 1.02 0 0 Z " fill="#34B1D6" transform="translate(935,162)"/>
<path d="M0 0 C0.99 0.66 1.98 1.32 3 2 C3 2.66 3 3.32 3 4 C0.36 4 -2.28 4 -5 4 C-5 4.99 -5 5.98 -5 7 C-3.88625 7.45375 -2.7725 7.9075 -1.625 8.375 C2 10 2 10 4 12 C4.375 14.4375 4.375 14.4375 4 17 C2.5 18.8125 2.5 18.8125 0 20 C-2.72079845 20.23884872 -5.25814068 20.13709297 -8 20 C-8.33 18.68 -8.66 17.36 -9 16 C-6.36 16 -3.72 16 -1 16 C-1 15.01 -1 14.02 -1 13 C-2.134375 12.649375 -3.26875 12.29875 -4.4375 11.9375 C-6.36328125 11.12109375 -6.36328125 11.12109375 -8 10 C-9.125 6.5 -9.125 6.5 -9 3 C-6.93224739 -0.77060771 -3.96633267 -0.41315965 0 0 Z " fill="#32B8DC" transform="translate(1001,169)"/>
<path d="M0 0 C3 1 3 1 4.6875 4.0625 C5.120625 5.031875 5.55375 6.00125 6 7 C6.99 4.69 7.98 2.38 9 0 C13.29 0 17.58 0 22 0 C22 0.99 22 1.98 22 3 C20.68 3 19.36 3 18 3 C18 6.3 18 9.6 18 13 C17.01 13 16.02 13 15 13 C15 9.7 15 6.4 15 3 C13.35 3 11.7 3 10 3 C9.34 5.97 8.68 8.94 8 12 C6.68 12.33 5.36 12.66 4 13 C3.32694982 11.39850114 2.66177773 9.79368971 2 8.1875 C1.62875 7.29417969 1.2575 6.40085938 0.875 5.48046875 C0 3 0 3 0 0 Z " fill="#656164" transform="translate(464,239)"/>
<path d="M0 0 C2.375 0.875 2.375 0.875 4.375 2.875 C4.93505895 9.93174282 4.93505895 9.93174282 3.1875 12.875 C0.68038007 14.25823858 -0.8069827 14.36815303 -3.625 13.875 C-6.12102608 11.63718351 -6.5784013 10.19453394 -7.0625 6.875 C-6.625 3.875 -6.625 3.875 -4.9375 1.4375 C-2.625 -0.125 -2.625 -0.125 0 0 Z " fill="#EFF7FA" transform="translate(903.625,172.125)"/>
<path d="M0 0 C6.0546875 -0.1953125 6.0546875 -0.1953125 8 0 C10 2 10 2 10.3125 5.4375 C10 9 10 9 8.9375 10.9375 C5.98831309 12.55479605 3.29132441 12.18630138 0 12 C0 8.04 0 4.08 0 0 Z " fill="#352C31" transform="translate(518,240)"/>
<path d="M0 0 C1.32 0 2.64 0 4 0 C4 8.91 4 17.82 4 27 C2.68 27 1.36 27 0 27 C0 18.09 0 9.18 0 0 Z " fill="#44B5D8" transform="translate(829,161)"/>
<path d="M0 0 C0.99 0 1.98 0 3 0 C3 1.65 3 3.3 3 5 C4.32 5 5.64 5 7 5 C7 5.66 7 6.32 7 7 C5.68 7 4.36 7 3 7 C3.33 11.29 3.66 15.58 4 20 C5.32 20.33 6.64 20.66 8 21 C8 21.99 8 22.98 8 24 C5.125 24.125 5.125 24.125 2 24 C0 22 0 22 -0.1953125 18.7421875 C-0.17210937 17.46601563 -0.14890625 16.18984375 -0.125 14.875 C-0.10695313 13.59367188 -0.08890625 12.31234375 -0.0703125 10.9921875 C-0.04710937 10.00476563 -0.02390625 9.01734375 0 8 C-0.99 8 -1.98 8 -3 8 C-3 7.01 -3 6.02 -3 5 C-2.01 5 -1.02 5 0 5 C0 3.35 0 1.7 0 0 Z " fill="#35B6D9" transform="translate(1010,165)"/>
<path d="M0 0 C0 0.33 0 0.66 0 1 C-0.94875 1.103125 -1.8975 1.20625 -2.875 1.3125 C-6.29107501 1.68539295 -6.29107501 1.68539295 -8 5 C-8.36963693 9.34323398 -8.00943169 10.98113663 -6 15 C-2.7 14.67 0.6 14.34 4 14 C3.34 15.32 2.68 16.64 2 18 C-1.07616765 18.36190208 -3.93162804 18.47718828 -7 18 C-10.34190862 15.34011355 -11.63575132 13.88303558 -12.4375 9.73828125 C-12.63522047 6.00012866 -12.37239185 3.65168574 -10.5 0.375 C-6.72410379 -1.70174292 -4.17303929 -0.83460786 0 0 Z " fill="#24AED2" transform="translate(759,171)"/>
<path d="M0 0 C2.97 0 5.94 0 9 0 C9.95585284 3.7172055 9.90395705 6.28373213 9 10 C9 10.66 9 11.32 9 12 C7.68 11.34 6.36 10.68 5 10 C5 9.34 5 8.68 5 8 C4.34 8 3.68 8 3 8 C3 9.65 3 11.3 3 13 C2.01 12.67 1.02 12.34 0 12 C0 8.04 0 4.08 0 0 Z " fill="#716D6D" transform="translate(492,213)"/>
<path d="M0 0 C2.97 0 5.94 0 9 0 C9.95585284 3.7172055 9.90395705 6.28373213 9 10 C9 10.66 9 11.32 9 12 C7.68 11.34 6.36 10.68 5 10 C5 9.34 5 8.68 5 8 C4.34 8 3.68 8 3 8 C3 9.32 3 10.64 3 12 C2.01 12 1.02 12 0 12 C0 8.04 0 4.08 0 0 Z " fill="#332E30" transform="translate(592,213)"/>
<path d="M0 0 C6.15234375 -0.09765625 6.15234375 -0.09765625 8 0 C9 1 9 1 9.0625 3.5625 C9.041875 4.366875 9.02125 5.17125 9 6 C8.34 6 7.68 6 7 6 C7.66 8.31 8.32 10.62 9 13 C8.01 13 7.02 13 6 13 C5.34 11.68 4.68 10.36 4 9 C3.67 9.99 3.34 10.98 3 12 C2.01 12 1.02 12 0 12 C0 8.04 0 4.08 0 0 Z " fill="#403A3A" transform="translate(536,213)"/>
<path d="M0 0 C0.66 0 1.32 0 2 0 C2 0.66 2 1.32 2 2 C2.763125 1.67 3.52625 1.34 4.3125 1 C7 0 7 0 10 0 C10 0.99 10 1.98 10 3 C8.35 3.66 6.7 4.32 5 5 C4.67 9.62 4.34 14.24 4 19 C2.68 19 1.36 19 0 19 C0 12.73 0 6.46 0 0 Z " fill="#40B6DC" transform="translate(959,170)"/>
<path d="M0 0 C1.32 0.33 2.64 0.66 4 1 C5.25 4.0625 5.25 4.0625 6 7 C6.66 7 7.32 7 8 7 C8 4.69 8 2.38 8 0 C8.66 0 9.32 0 10 0 C10 3.96 10 7.92 10 12 C6 11 6 11 4.25 8.4375 C3.8375 7.633125 3.425 6.82875 3 6 C2.67 7.98 2.34 9.96 2 12 C1.34 12 0.68 12 0 12 C0 8.04 0 4.08 0 0 Z " fill="#433E40" transform="translate(460,213)"/>
<path d="M0 0 C0.99 0 1.98 0 3 0 C3.33 4.62 3.66 9.24 4 14 C5.65 14.33 7.3 14.66 9 15 C9.99 15.33 10.98 15.66 12 16 C9.79180637 17.96283878 8.37931024 18.93523972 5.4375 19.4375 C3 19 3 19 1.359375 17.45703125 C-0.50791914 14.08195075 -0.32555011 10.99505183 -0.1875 7.25 C-0.17396484 6.55261719 -0.16042969 5.85523438 -0.14648438 5.13671875 C-0.1112945 3.42414459 -0.05749155 1.71197059 0 0 Z " fill="#2BB3D9" transform="translate(972,170)"/>
<path d="M0 0 C6 0 6 0 9 2 C8.125 6.875 8.125 6.875 7 8 C5.33382885 8.04063832 3.66611905 8.042721 2 8 C2 9.65 2 11.3 2 13 C1.34 13 0.68 13 0 13 C0 8.71 0 4.42 0 0 Z " fill="#292527" transform="translate(454,239)"/>
<path d="M0 0 C1.890625 0.2578125 1.890625 0.2578125 4 1 C5.046875 2.7421875 5.046875 2.7421875 5.75 4.875 C6.11351562 5.92300781 6.11351562 5.92300781 6.484375 6.9921875 C7 9 7 9 7 12 C6.34 12 5.68 12 5 12 C5 11.34 5 10.68 5 10 C3.02 10 1.04 10 -1 10 C-1 10.66 -1 11.32 -1 12 C-1.66 12 -2.32 12 -3 12 C-2.49202991 7.6822542 -1.80317221 3.96697886 0 0 Z " fill="#565253" transform="translate(507,213)"/>
<path d="M0 0 C1.4540625 0.0309375 1.4540625 0.0309375 2.9375 0.0625 C3.2675 1.0525 3.5975 2.0425 3.9375 3.0625 C2.2875 3.0625 0.6375 3.0625 -1.0625 3.0625 C-1.0625 3.7225 -1.0625 4.3825 -1.0625 5.0625 C1.4125 6.0525 1.4125 6.0525 3.9375 7.0625 C3.0625 11.9375 3.0625 11.9375 1.9375 13.0625 C0.27132885 13.10313832 -1.39638095 13.105221 -3.0625 13.0625 C-3.3925 12.0725 -3.7225 11.0825 -4.0625 10.0625 C-2.4125 10.0625 -0.7625 10.0625 0.9375 10.0625 C0.9375 9.4025 0.9375 8.7425 0.9375 8.0625 C0.298125 7.918125 -0.34125 7.77375 -1 7.625 C-3.0625 7.0625 -3.0625 7.0625 -4.0625 6.0625 C-4.1875 3.5625 -4.1875 3.5625 -4.0625 1.0625 C-3.0625 0.0625 -3.0625 0.0625 0 0 Z " fill="#504C4D" transform="translate(520.0625,212.9375)"/>
<path d="M0 0 C0.99 0 1.98 0 3 0 C6 6.5 6 6.5 6 11 C3.03 11 0.06 11 -3 11 C-2.32829194 7.1936543 -1.27253436 3.64793184 0 0 Z " fill="#ECECEC" transform="translate(568,169)"/>
<path d="M0 0 C0.66 0 1.32 0 2 0 C2 3.3 2 6.6 2 10 C2.66 10 3.32 10 4 10 C3.67 15.28 3.34 20.56 3 26 C2.01 26 1.02 26 0 26 C0 17.42 0 8.84 0 0 Z " fill="#22ACD3" transform="translate(728,162)"/>
<path d="M0 0 C0.66 0 1.32 0 2 0 C2.33 2.97 2.66 5.94 3 9 C3.99 9.33 4.98 9.66 6 10 C6.33 6.7 6.66 3.4 7 0 C7.99 0 8.98 0 10 0 C10.10824843 1.6026782 10.18570645 3.20745748 10.25 4.8125 C10.29640625 5.70582031 10.3428125 6.59914062 10.390625 7.51953125 C10 10 10 10 8.234375 11.82421875 C6 13 6 13 2 13 C-0.20914 9.68629 -0.22481553 8.6553979 -0.125 4.8125 C-0.10695313 3.91144531 -0.08890625 3.01039063 -0.0703125 2.08203125 C-0.04710937 1.39496094 -0.02390625 0.70789063 0 0 Z " fill="#393539" transform="translate(547,213)"/>
<path d="M0 0 C1.4540625 0.0309375 1.4540625 0.0309375 2.9375 0.0625 C3.2675 0.7225 3.5975 1.3825 3.9375 2.0625 C2.2875 2.0625 0.6375 2.0625 -1.0625 2.0625 C-1.0625 3.0525 -1.0625 4.0425 -1.0625 5.0625 C-0.1034375 5.2790625 -0.1034375 5.2790625 0.875 5.5 C2.9375 6.0625 2.9375 6.0625 3.9375 7.0625 C3.97813832 8.72867115 3.980221 10.39638095 3.9375 12.0625 C1.6275 12.3925 -0.6825 12.7225 -3.0625 13.0625 C-3.3925 12.0725 -3.7225 11.0825 -4.0625 10.0625 C-2.0825 10.0625 -0.1025 10.0625 1.9375 10.0625 C1.9375 9.4025 1.9375 8.7425 1.9375 8.0625 C1.133125 7.918125 0.32875 7.77375 -0.5 7.625 C-3.0625 7.0625 -3.0625 7.0625 -4.0625 6.0625 C-4.1875 3.5625 -4.1875 3.5625 -4.0625 1.0625 C-3.0625 0.0625 -3.0625 0.0625 0 0 Z " fill="#464142" transform="translate(476.0625,212.9375)"/>
<path d="M0 0 C3 1 3 1 4.6875 4.0625 C5.120625 5.031875 5.55375 6.00125 6 7 C6.66 5.02 7.32 3.04 8 1 C8.99 1 9.98 1 11 1 C10.01 4.63 9.02 8.26 8 12 C6.68 12.33 5.36 12.66 4 13 C3.32694982 11.39850114 2.66177773 9.79368971 2 8.1875 C1.62875 7.29417969 1.2575 6.40085938 0.875 5.48046875 C0 3 0 3 0 0 Z " fill="#4A4447" transform="translate(464,239)"/>
<path d="M0 0 C2.64 0 5.28 0 8 0 C8 0.66 8 1.32 8 2 C6.02 2 4.04 2 2 2 C2 2.99 2 3.98 2 5 C3.65 5 5.3 5 7 5 C7 5.66 7 6.32 7 7 C5.35 7 3.7 7 2 7 C2 8.32 2 9.64 2 11 C4.31 11 6.62 11 9 11 C9 11.66 9 12.32 9 13 C6.03 13 3.06 13 0 13 C0 8.71 0 4.42 0 0 Z " fill="#474144" transform="translate(604,213)"/>
<path d="M0 0 C2.5625 0.1875 2.5625 0.1875 4.5625 2.1875 C4.70757695 4.93235593 4.74902423 7.57230543 4.6875 10.3125 C4.67847656 11.06660156 4.66945313 11.82070312 4.66015625 12.59765625 C4.6365687 14.46107254 4.60069719 16.32432593 4.5625 18.1875 C3.5725 18.1875 2.5825 18.1875 1.5625 18.1875 C1.2325 12.9075 0.9025 7.6275 0.5625 2.1875 C-0.7575 1.8575 -2.0775 1.5275 -3.4375 1.1875 C-2.4375 0.1875 -2.4375 0.1875 0 0 Z " fill="#27B2D4" transform="translate(857.4375,169.8125)"/>
<path d="M0 0 C1.32 0 2.64 0 4 0 C4 3.3 4 6.6 4 10 C4.99 9.34 5.98 8.68 7 8 C10.1875 7.875 10.1875 7.875 13 8 C11.02 8.99 11.02 8.99 9 10 C9.66 10.66 10.32 11.32 11 12 C9.02 12.33 7.04 12.66 5 13 C5 12.34 5 11.68 5 11 C4.34 11 3.68 11 3 11 C3 7.7 3 4.4 3 1 C2.34 1 1.68 1 1 1 C1 9.58 1 18.16 1 27 C0.67 27 0.34 27 0 27 C0 18.09 0 9.18 0 0 Z " fill="#62BDDC" transform="translate(727,161)"/>
<path d="M0 0 C1.670625 0.061875 1.670625 0.061875 3.375 0.125 C3.705 1.115 4.035 2.105 4.375 3.125 C3.405625 3.104375 2.43625 3.08375 1.4375 3.0625 C-1.49965895 2.76881501 -1.49965895 2.76881501 -2.625 4.125 C-2.66563832 5.79117115 -2.667721 7.45888095 -2.625 9.125 C0.345 9.62 0.345 9.62 3.375 10.125 C3.045 11.115 2.715 12.105 2.375 13.125 C-0.2914882 13.34120175 -2.06504321 13.43394168 -4.4375 12.125 C-6.41087049 8.80142865 -5.92812838 5.94441755 -5.625 2.125 C-3.625 0.125 -3.625 0.125 0 0 Z " fill="#403B3E" transform="translate(564.625,212.875)"/>
<path d="M0 0 C0.66 0 1.32 0 2 0 C2.33 3.3 2.66 6.6 3 10 C3.99 10 4.98 10 6 10 C6.33 6.7 6.66 3.4 7 0 C7.66 0 8.32 0 9 0 C9.08086147 1.79093191 9.13912702 3.58289628 9.1875 5.375 C9.22230469 6.37273437 9.25710938 7.37046875 9.29296875 8.3984375 C9.19628906 9.25695312 9.09960938 10.11546875 9 11 C6 13 6 13 3.375 12.6875 C1 12 1 12 0 11 C-0.07226502 9.14712498 -0.0838122 7.29166122 -0.0625 5.4375 C-0.05347656 4.42558594 -0.04445313 3.41367188 -0.03515625 2.37109375 C-0.02355469 1.58863281 -0.01195312 0.80617187 0 0 Z " fill="#353034" transform="translate(581,213)"/>
<path d="M0 0 C2.64 0 5.28 0 8 0 C8 0.66 8 1.32 8 2 C6.02 2 4.04 2 2 2 C2 2.99 2 3.98 2 5 C3.98 5 5.96 5 8 5 C8 5.99 8 6.98 8 8 C6.02 8 4.04 8 2 8 C2 9.65 2 11.3 2 13 C1.34 13 0.68 13 0 13 C0 8.71 0 4.42 0 0 Z " fill="#494546" transform="translate(483,213)"/>
<path d="M0 0 C0.99 0 1.98 0 3 0 C3 5.94 3 11.88 3 18 C2.01 18 1.02 18 0 18 C0 12.06 0 6.12 0 0 Z " fill="#26AFD4" transform="translate(838,170)"/>
<path d="M0 0 C1.32 0 2.64 0 4 0 C5.65 4.29 7.3 8.58 9 13 C8.01 13.495 8.01 13.495 7 14 C7 13.01 7 12.02 7 11 C6.01 11.33 5.02 11.66 4 12 C3.32645501 10.56570999 2.66140299 9.12742943 2 7.6875 C1.62875 6.88699219 1.2575 6.08648437 0.875 5.26171875 C0 3 0 3 0 0 Z " fill="#3CB3D5" transform="translate(809,170)"/>
<path d="M0 0 C2.97 0 5.94 0 9 0 C9 0.66 9 1.32 9 2 C8.01 2 7.02 2 6 2 C6 5.63 6 9.26 6 13 C5.01 12.67 4.02 12.34 3 12 C3 8.7 3 5.4 3 2 C2.01 2 1.02 2 0 2 C0 1.34 0 0.68 0 0 Z " fill="#4A4749" transform="translate(570,213)"/>
<path d="M0 0 C3 2 3 2 5 5 C4.80790694 7.96920989 4.01339911 10.15283107 3 13 C2.67 13 2.34 13 2 13 C1.87625 11.88625 1.7525 10.7725 1.625 9.625 C1.3534187 5.96896323 1.3534187 5.96896323 -1 4 C-4.09926819 4.32198966 -4.09926819 4.32198966 -7 5 C-7.33 3.68 -7.66 2.36 -8 1 C-5.11138291 -0.44430855 -3.20352299 -0.37688506 0 0 Z " fill="#42B7D5" transform="translate(906,169)"/>
<path d="M0 0 C0.99 0 1.98 0 3 0 C3 3.63 3 7.26 3 11 C4.65 11 6.3 11 8 11 C8 11.66 8 12.32 8 13 C5.36 13 2.72 13 0 13 C0 8.71 0 4.42 0 0 Z " fill="#584F52" transform="translate(498,239)"/>
<path d="M0 0 C2.97 0 5.94 0 9 0 C9 0.66 9 1.32 9 2 C8.01 2 7.02 2 6 2 C6 5.3 6 8.6 6 12 C5.01 12 4.02 12 3 12 C3 8.7 3 5.4 3 2 C2.01 2 1.02 2 0 2 C0 1.34 0 0.68 0 0 Z " fill="#575154" transform="translate(507,240)"/>
<path d="M0 0 C0.33 1.32 0.66 2.64 1 4 C3.31 4 5.62 4 8 4 C8 6.31 8 8.62 8 11 C6.68 10.34 5.36 9.68 4 9 C4 8.34 4 7.68 4 7 C3.34 7 2.68 7 2 7 C2 8.65 2 10.3 2 12 C1.34 12 0.68 12 0 12 C0 8.04 0 4.08 0 0 Z " fill="#332E30" transform="translate(493,214)"/>
<path d="M0 0 C0 3.96 0 7.92 0 12 C-0.99 11.67 -1.98 11.34 -3 11 C-3.66666667 9.33333333 -4.33333333 7.66666667 -5 6 C-5.99 5.67 -6.98 5.34 -8 5 C-8 4.01 -8 3.02 -8 2 C-4.91190305 0.23537317 -3.76687864 0 0 0 Z " fill="#CBCACA" transform="translate(483,213)"/>
<path d="M0 0 C2.97 0 5.94 0 9 0 C9.33 1.65 9.66 3.3 10 5 C7.69 5 5.38 5 3 5 C3 3.68 3 2.36 3 1 C2.34 1 1.68 1 1 1 C1 4.63 1 8.26 1 12 C0.67 12 0.34 12 0 12 C0 8.04 0 4.08 0 0 Z " fill="#747171" transform="translate(592,213)"/>
<path d="M0 0 C0.66 0.66 1.32 1.32 2 2 C4.44012949 2.24287489 4.44012949 2.24287489 7.125 2.125 C8.03507813 2.10695312 8.94515625 2.08890625 9.8828125 2.0703125 C10.58148437 2.04710937 11.28015625 2.02390625 12 2 C11.34 3.32 10.68 4.64 10 6 C6.9465865 6.29359745 4.04256578 6.4451258 1 6 C-1.5625 3.5 -1.5625 3.5 -3 1 C-2.01 0.67 -1.02 0.34 0 0 Z " fill="#20B2DD" transform="translate(870,183)"/>
<path d="M0 0 C1.875 1.5 1.875 1.5 3 3 C1 4 1 4 -1.8125 3.75 C-5.2309302 3.69998514 -5.2309302 3.69998514 -7.875 6.5 C-8.57625 7.325 -9.2775 8.15 -10 9 C-10.35882213 5.77060081 -10.27258004 4.38790237 -8.375 1.6875 C-5.3258758 -0.47898298 -3.66762206 -0.54624158 0 0 Z " fill="#3EB3D2" transform="translate(877,169)"/>
<path d="M0 0 C1.66611905 -0.042721 3.33382885 -0.04063832 5 0 C6 1 6 1 6.1875 3.4375 C6 6 6 6 4 8 C2.68 8 1.36 8 0 8 C0 5.36 0 2.72 0 0 Z " fill="#E4E4E5" transform="translate(520,242)"/>
<path d="M0 0 C3.3 0 6.6 0 10 0 C10 0.66 10 1.32 10 2 C8.68 2 7.36 2 6 2 C6 5.63 6 9.26 6 13 C5.34 13 4.68 13 4 13 C4 9.37 4 5.74 4 2 C2.68 2 1.36 2 0 2 C0 1.34 0 0.68 0 0 Z " fill="#3C3839" transform="translate(525,213)"/>
<path d="M0 0 C-0.14084796 1.79206547 -0.28783701 3.58364917 -0.4375 5.375 C-0.51871094 6.37273437 -0.59992187 7.37046875 -0.68359375 8.3984375 C-1 11 -1 11 -2 13 C-2.99 12.67 -3.98 12.34 -5 12 C-5.36666667 4.66666667 -5.36666667 4.66666667 -3.625 1.5 C-2 0 -2 0 0 0 Z " fill="#22ABD0" transform="translate(899,171)"/>
<path d="M0 0 C-0.33 1.98 -0.66 3.96 -1 6 C-1.66 6 -2.32 6 -3 6 C-3 7.32 -3 8.64 -3 10 C-3.99 10 -4.98 10 -6 10 C-6 7.03 -6 4.06 -6 1 C-4 0 -4 0 0 0 Z " fill="#686466" transform="translate(542,215)"/>
<path d="M0 0 C0.99 0 1.98 0 3 0 C3 4.29 3 8.58 3 13 C2.01 13 1.02 13 0 13 C0 8.71 0 4.42 0 0 Z " fill="#555151" transform="translate(454,213)"/>
<path d="M0 0 C2 2 2 2 2.3125 4 C2.539375 4.66 2.76625 5.32 3 6 C5.49034386 7.29660434 5.49034386 7.29660434 8 8 C8 8.66 8 9.32 8 10 C6.02 10 4.04 10 2 10 C2 10.66 2 11.32 2 12 C1.34 12 0.68 12 0 12 C0 8.04 0 4.08 0 0 Z " fill="#DDDDDD" transform="translate(470,213)"/>
<path d="M0 0 C2.0625 0.4375 2.0625 0.4375 4 1 C4 1.66 4 2.32 4 3 C5.98 2.67 7.96 2.34 10 2 C10 2.66 10 3.32 10 4 C10.66 4.33 11.32 4.66 12 5 C8.87139505 6.56430248 6.44397075 6.35627284 3 6 C0.5625 3.5 0.5625 3.5 -1 1 C-0.67 0.67 -0.34 0.34 0 0 Z " fill="#3ABADF" transform="translate(896,183)"/>
<path d="M0 0 C0.33 0 0.66 0 1 0 C1.33 1.98 1.66 3.96 2 6 C-1.21451269 7.60725635 -4.43612536 7.05748185 -8 7 C-8.33 5.68 -8.66 4.36 -9 3 C-6.36 3 -3.72 3 -1 3 C-0.67 2.01 -0.34 1.02 0 0 Z " fill="#60C4E2" transform="translate(1001,182)"/>
<path d="M0 0 C1.65 0 3.3 0 5 0 C5.66 1.65 6.32 3.3 7 5 C4.03 5 1.06 5 -2 5 C-1.34 3.35 -0.68 1.7 0 0 Z " fill="#E5F2F7" transform="translate(753,172)"/>
<path d="M0 0 C0.66 0 1.32 0 2 0 C2 0.99 2 1.98 2 3 C3.175625 2.690625 3.175625 2.690625 4.375 2.375 C5.674375 2.189375 5.674375 2.189375 7 2 C9 4 9 4 9 7 C8.34 7 7.68 7 7 7 C7 6.34 7 5.68 7 5 C5.02 5 3.04 5 1 5 C1 5.66 1 6.32 1 7 C0.34 7 -0.32 7 -1 7 C-0.67 4.69 -0.34 2.38 0 0 Z " fill="#3A3638" transform="translate(505,218)"/>
<path d="M0 0 C2.375 0.25 2.375 0.25 5 1 C5.66 2.32 6.32 3.64 7 5 C4.03 5 1.06 5 -2 5 C-1.34 3.35 -0.68 1.7 0 0 Z " fill="#E9F3F7" transform="translate(872,172)"/>
<path d="M0 0 C2.875 -0.125 2.875 -0.125 6 0 C6.66 0.66 7.32 1.32 8 2 C7.625 4.125 7.625 4.125 7 6 C5.35 6 3.7 6 2 6 C2 4.68 2 3.36 2 2 C1.34 2 0.68 2 0 2 C0 1.34 0 0.68 0 0 Z " fill="#807E7F" transform="translate(454,239)"/>
<path d="M0 0 C0.33 0 0.66 0 1 0 C1 3.96 1 7.92 1 12 C-0.98 12.33 -2.96 12.66 -5 13 C-4.67 12.34 -4.34 11.68 -4 11 C-3.34 11.33 -2.68 11.66 -2 12 C-2.33 10.02 -2.66 8.04 -3 6 C-2.01 5.67 -1.02 5.34 0 5 C0 3.35 0 1.7 0 0 Z " fill="#DEDDDE" transform="translate(603,213)"/>
<path d="M0 0 C0.99 0 1.98 0 3 0 C3.2519555 3.02346601 3.20421041 4.6402007 1.6875 7.3125 C1.130625 7.869375 0.57375 8.42625 0 9 C-0.99 9 -1.98 9 -3 9 C-2.01 6.03 -1.02 3.06 0 0 Z " fill="#39B2D3" transform="translate(822,170)"/>
<path d="M0 0 C1.875 0.6875 1.875 0.6875 2.875 1.6875 C3.0625 5.125 3.0625 5.125 2.875 8.6875 C2.215 9.3475 1.555 10.0075 0.875 10.6875 C0.215 10.0275 -0.445 9.3675 -1.125 8.6875 C-0.795 8.3575 -0.465 8.0275 -0.125 7.6875 C-0.08436168 6.02132885 -0.082279 4.35361905 -0.125 2.6875 C-1.775 2.3575 -3.425 2.0275 -5.125 1.6875 C-2.125 -0.3125 -2.125 -0.3125 0 0 Z " fill="#3F3739" transform="translate(525.125,240.3125)"/>
<path d="M0 0 C0.99 0 1.98 0 3 0 C3 3.3 3 6.6 3 10 C2.01 10 1.02 10 0 10 C0 6.7 0 3.4 0 0 Z " fill="#575356" transform="translate(554,213)"/>
<path d="M0 0 C0.99 0 1.98 0 3 0 C2.67 3.96 2.34 7.92 2 12 C1.34 12 0.68 12 0 12 C0 8.04 0 4.08 0 0 Z " fill="#302B2C" transform="translate(460,213)"/>
<path d="M0 0 C1.65 0 3.3 0 5 0 C5 3 5 3 4 6 C0.37 6 -3.26 6 -7 6 C-6.67 5.34 -6.34 4.68 -6 4 C-3.03 4.33 -0.06 4.66 3 5 C2.01 3.35 1.02 1.7 0 0 Z " fill="#57C1DE" transform="translate(876,172)"/>
<path d="M0 0 C0.33 0 0.66 0 1 0 C1.66 3.3 2.32 6.6 3 10 C2.01 10 1.02 10 0 10 C-1.0625 7.625 -1.0625 7.625 -2 5 C-1.67 4.34 -1.34 3.68 -1 3 C-1.66 2.67 -2.32 2.34 -3 2 C-2.01 2 -1.02 2 0 2 C0 1.34 0 0.68 0 0 Z " fill="#4F494C" transform="translate(542,216)"/>
<path d="M0 0 C-0.66 1.32 -1.32 2.64 -2 4 C-4.97 4 -7.94 4 -11 4 C-7.88789178 0.88789178 -4.34860953 0 0 0 Z " fill="#45C1E6" transform="translate(763,185)"/>
<path d="M0 0 C0.99 0 1.98 0 3 0 C3.33 0.99 3.66 1.98 4 3 C3.01 3 2.02 3 1 3 C1 7.95 1 12.9 1 18 C0.67 18 0.34 18 0 18 C0 12.06 0 6.12 0 0 Z " fill="#45B6DD" transform="translate(846,170)"/>
<path d="M0 0 C0.66 0 1.32 0 2 0 C2 3.96 2 7.92 2 12 C0.68 11.67 -0.64 11.34 -2 11 C-1.67 10.01 -1.34 9.02 -1 8 C-0.67 8 -0.34 8 0 8 C0 5.36 0 2.72 0 0 Z " fill="#2F2B2B" transform="translate(468,213)"/>
<path d="M0 0 C0.66 0 1.32 0 2 0 C2.33 3.63 2.66 7.26 3 11 C2.01 11 1.02 11 0 11 C0 7.37 0 3.74 0 0 Z " fill="#2A262A" transform="translate(581,213)"/>
<path d="M0 0 C0.33 0 0.66 0 1 0 C1 1.98 1 3.96 1 6 C-1.31 5.67 -3.62 5.34 -6 5 C-6 4.01 -6 3.02 -6 2 C-4.02 2 -2.04 2 0 2 C0 1.34 0 0.68 0 0 Z " fill="#E5E4E4" transform="translate(491,213)"/>
<path d="M0 0 C0.99 0.33 1.98 0.66 3 1 C2.1875 2.9375 2.1875 2.9375 1 5 C0.01 5.33 -0.98 5.66 -2 6 C-2.66 5.34 -3.32 4.68 -4 4 C-2.68 2.68 -1.36 1.36 0 0 Z " fill="#39B3D4" transform="translate(803,170)"/>
<path d="M0 0 C2.64 0.33 5.28 0.66 8 1 C7.67 1.99 7.34 2.98 7 4 C5.35 4 3.7 4 2 4 C1.34 2.68 0.68 1.36 0 0 Z " fill="#4B464A" transform="translate(560,222)"/>
<path d="M0 0 C0.5625 1.9375 0.5625 1.9375 1 4 C0 5 0 5 -2.5625 5.0625 C-3.7690625 5.0315625 -3.7690625 5.0315625 -5 5 C-5.33 4.01 -5.66 3.02 -6 2 C-4.02 2 -2.04 2 0 2 C0 1.34 0 0.68 0 0 Z " fill="#474142" transform="translate(522,221)"/>
<path d="M0 0 C-0.66 1.32 -1.32 2.64 -2 4 C-4.97 4 -7.94 4 -11 4 C-11 3.67 -11 3.34 -11 3 C-9.02 3 -7.04 3 -5 3 C-5 2.34 -5 1.68 -5 1 C-3 0 -3 0 0 0 Z " fill="#53C4E7" transform="translate(882,185)"/>
<path d="M0 0 C1.32 0.33 2.64 0.66 4 1 C4 2.65 4 4.3 4 6 C3.01 6.33 2.02 6.66 1 7 C0.67 4.69 0.34 2.38 0 0 Z " fill="#29B6D8" transform="translate(1001,180)"/>
<path d="M0 0 C0.66 0 1.32 0 2 0 C2.33 1.98 2.66 3.96 3 6 C1.35 6.33 -0.3 6.66 -2 7 C-1.34 4.69 -0.68 2.38 0 0 Z " fill="#49B2CC" transform="translate(438,65)"/>
<path d="M0 0 C0.33 1.98 0.66 3.96 1 6 C-0.32 5.34 -1.64 4.68 -3 4 C-3 3.34 -3 2.68 -3 2 C-3.66 1.67 -4.32 1.34 -5 1 C-3 0 -3 0 0 0 Z " fill="#464142" transform="translate(500,219)"/>
<path d="M0 0 C0 0.99 0 1.98 0 3 C-1.98 3.66 -3.96 4.32 -6 5 C-6.33 4.01 -6.66 3.02 -7 2 C-4.35261084 0.5393715 -3.10551666 0 0 0 Z " fill="#3DBBE1" transform="translate(969,170)"/>
<path d="M0 0 C0.33 1.32 0.66 2.64 1 4 C2.32 4 3.64 4 5 4 C5 4.99 5 5.98 5 7 C3.35 7 1.7 7 0 7 C0 4.69 0 2.38 0 0 Z " fill="#58C4E2" transform="translate(920,166)"/>
<path d="M0 0 C2.64 0.33 5.28 0.66 8 1 C7.67 1.66 7.34 2.32 7 3 C4.69 3 2.38 3 0 3 C0 2.01 0 1.02 0 0 Z " fill="#33B9E0" transform="translate(992,185)"/>
<path d="M0 0 C0.99 0.495 0.99 0.495 2 1 C2.40729228 3.32156597 2.74438677 5.6568787 3 8 C2.01 8 1.02 8 0 8 C0 5.36 0 2.72 0 0 Z " fill="#28B0D5" transform="translate(1010,177)"/>
<path d="M0 0 C2.31 0 4.62 0 7 0 C7 0.99 7 1.98 7 3 C4.36 3 1.72 3 -1 3 C-0.67 2.01 -0.34 1.02 0 0 Z " fill="#1DAED3" transform="translate(872,170)"/>
<path d="M0 0 C5.625 -0.25 5.625 -0.25 9 2 C9 2.66 9 3.32 9 4 C7.35 3.67 5.7 3.34 4 3 C4 2.34 4 1.68 4 1 C2.68 0.67 1.36 0.34 0 0 Z " fill="#3CC0DF" transform="translate(995,169)"/>
</svg>
