<?xml version="1.0" encoding="UTF-8"?>
<svg version="1.1" xmlns="http://www.w3.org/2000/svg" width="1252" height="313">
<path d="M0 0 C0.97710937 -0.04898438 1.95421875 -0.09796875 2.9609375 -0.1484375 C5.625 0.375 5.625 0.375 7.21875 2.3203125 C7.6828125 3.32835937 8.146875 4.33640625 8.625 5.375 C8.94162598 6.06223145 9.25825195 6.74946289 9.58447266 7.45751953 C10.66491547 9.83630536 11.71119539 12.22775859 12.75 14.625 C13.45884996 16.25611712 14.16968173 17.88637492 14.8828125 19.515625 C15.34905029 20.59118652 15.34905029 20.59118652 15.82470703 21.68847656 C16.5060457 23.36794301 16.5060457 23.36794301 17.625 24.375 C17.92269287 23.68349854 18.22038574 22.99199707 18.52709961 22.27954102 C19.86977486 19.16446102 21.21608667 16.05096602 22.5625 12.9375 C23.03107422 11.84888672 23.49964844 10.76027344 23.98242188 9.63867188 C24.6543457 8.08696289 24.6543457 8.08696289 25.33984375 6.50390625 C25.75355225 5.54556885 26.16726074 4.58723145 26.59350586 3.59985352 C27.625 1.375 27.625 1.375 28.625 0.375 C30.45615883 0.27648829 32.29119933 0.24527371 34.125 0.25 C35.1253125 0.24742187 36.125625 0.24484375 37.15625 0.2421875 C39.625 0.375 39.625 0.375 40.625 1.375 C40.71795815 2.81789787 40.74246513 4.26529785 40.73852539 5.71118164 C40.73844986 6.6320607 40.73837433 7.55293976 40.73829651 8.50172424 C40.73313522 9.50275681 40.72797394 10.50378937 40.72265625 11.53515625 C40.7212413 12.55475937 40.71982635 13.57436249 40.71836853 14.62486267 C40.71275097 17.89577107 40.7001955 21.16661213 40.6875 24.4375 C40.68248726 26.64908756 40.67792396 28.86067618 40.67382812 31.07226562 C40.66277584 36.50653357 40.64602063 41.94076197 40.625 47.375 C37.86249964 48.75625018 35.67768901 48.56579306 32.625 48.375 C30.10371644 45.85371644 30.33146931 44.86260987 30.2109375 41.3671875 C30.15292969 39.88798828 30.15292969 39.88798828 30.09375 38.37890625 C30.0628125 37.34636719 30.031875 36.31382812 30 35.25 C29.94199219 33.68958984 29.94199219 33.68958984 29.8828125 32.09765625 C29.78835234 29.52361689 29.70278786 26.94958845 29.625 24.375 C29.40884033 24.9097998 29.19268066 25.44459961 28.9699707 25.99560547 C27.97735181 28.42165569 26.95788924 30.83550624 25.9375 33.25 C25.59783203 34.09175781 25.25816406 34.93351562 24.90820312 35.80078125 C22.26864398 41.96797552 22.26864398 41.96797552 19.04296875 44.0078125 C16.625 44.375 16.625 44.375 13.625 43.375 C12.45825195 41.51733398 12.45825195 41.51733398 11.36328125 39.12109375 C11.00532471 38.3520874 10.64736816 37.58308105 10.27856445 36.79077148 C9.61473755 35.3165271 9.61473755 35.3165271 8.9375 33.8125 C7.514375 30.698125 6.09125 27.58375 4.625 24.375 C4.295 31.965 3.965 39.555 3.625 47.375 C0.86249964 48.75625018 -1.32231099 48.56579306 -4.375 48.375 C-6.375 46.375 -6.375 46.375 -6.62223816 44.43284607 C-6.62081314 43.64088333 -6.61938812 42.84892059 -6.61791992 42.03295898 C-6.62099655 41.1354039 -6.62407318 40.23784882 -6.62724304 39.31309509 C-6.62005753 38.34223465 -6.61287201 37.37137421 -6.60546875 36.37109375 C-6.60501053 35.3774733 -6.60455231 34.38385284 -6.6040802 33.36012268 C-6.60105609 31.25772916 -6.5931651 29.15533791 -6.58081055 27.05297852 C-6.56255565 23.82234831 -6.5603008 20.59200451 -6.56054688 17.36132812 C-6.5556318 15.32291417 -6.54980353 13.28450217 -6.54296875 11.24609375 C-6.54185593 10.27320908 -6.5407431 9.3003244 -6.53959656 8.29795837 C-6.53321671 7.40355545 -6.52683685 6.50915253 -6.52026367 5.58764648 C-6.51645187 4.79647934 -6.51264008 4.00531219 -6.50871277 3.19017029 C-6.22332943 -0.68395006 -3.27415225 0.11171648 0 0 Z " fill="#221E1F" transform="translate(489.375,148.625)"/>
<path d="M0 0 C3.3 0 6.6 0 10 0 C10 50.82 10 101.64 10 154 C6.7 154 3.4 154 0 154 C0 103.18 0 52.36 0 0 Z " fill="#221F20" transform="translate(424,94)"/>
<path d="M0 0 C3.70187542 0.03889079 4.98796411 0.34914566 7.6328125 3.00634766 C9.75033411 6.13021103 11.61774125 9.3071978 13.4375 12.61328125 C14.09105469 13.73283203 14.74460937 14.85238281 15.41796875 16.00585938 C16.62624656 18.07986201 17.81934274 20.16283621 18.9921875 22.25708008 C20.06701642 24.14874266 21.23064209 25.99049439 22.4375 27.80078125 C22.45731934 27.05393066 22.47713867 26.30708008 22.49755859 25.53759766 C22.59258211 22.1666252 22.70235259 18.79629196 22.8125 15.42578125 C22.8434375 14.25015625 22.874375 13.07453125 22.90625 11.86328125 C22.94492187 10.74179688 22.98359375 9.6203125 23.0234375 8.46484375 C23.0548584 7.4279541 23.0862793 6.39106445 23.11865234 5.32275391 C23.4375 2.80078125 23.4375 2.80078125 25.4375 0.80078125 C29 0.61328125 29 0.61328125 32.4375 0.80078125 C33.4375 1.80078125 33.4375 1.80078125 33.55775452 3.66737366 C33.55553391 4.4823381 33.55331329 5.29730255 33.55102539 6.13696289 C33.55094986 7.05784195 33.55087433 7.97872101 33.55079651 8.92750549 C33.54563522 9.92853806 33.54047394 10.92957062 33.53515625 11.9609375 C33.5337413 12.98054062 33.53232635 14.00014374 33.53086853 15.05064392 C33.52525097 18.32155232 33.5126955 21.59239338 33.5 24.86328125 C33.49498726 27.07486881 33.49042396 29.28645743 33.48632812 31.49804688 C33.47527584 36.93231482 33.45852063 42.36654322 33.4375 47.80078125 C30.34576248 49.34665001 27.84320448 49.09437646 24.4375 48.80078125 C19.97325201 45.346416 17.30101712 40.09876172 14.375 35.36328125 C13.58125977 34.09387695 13.58125977 34.09387695 12.77148438 32.79882812 C10.2890916 28.82139328 7.84349803 24.82494912 5.4375 20.80078125 C5.41768066 21.5779248 5.39786133 22.35506836 5.37744141 23.15576172 C5.28242991 26.66278816 5.17265441 30.16919919 5.0625 33.67578125 C5.0315625 34.89910156 5.000625 36.12242187 4.96875 37.3828125 C4.91074219 39.13271484 4.91074219 39.13271484 4.8515625 40.91796875 C4.8201416 41.99675293 4.7887207 43.07553711 4.75634766 44.18701172 C4.4375 46.80078125 4.4375 46.80078125 2.4375 48.80078125 C-2.89583333 49.13411458 -2.89583333 49.13411458 -5.5625 47.80078125 C-5.58777002 41.26799339 -5.60533292 34.73521804 -5.61743164 28.20239258 C-5.62247317 25.97810393 -5.62930623 23.75381862 -5.63793945 21.52954102 C-5.65001298 18.33999816 -5.65572996 15.15049896 -5.66015625 11.9609375 C-5.66531754 10.95990494 -5.67047882 9.95887238 -5.67579651 8.92750549 C-5.67587204 8.00662643 -5.67594757 7.08574738 -5.67602539 6.13696289 C-5.678246 5.32199844 -5.68046661 4.507034 -5.68275452 3.66737366 C-5.4535133 0.10908807 -3.14812882 0.35416449 0 0 Z " fill="#221E1F" transform="translate(381.5625,148.19921875)"/>
<path d="M0 0 C3.01220768 0.07104263 4.38475505 0.24389339 6.640625 2.28515625 C8.56114948 5.00279162 10.21232131 7.80332864 11.875 10.6875 C12.83014099 12.24755229 13.7901513 13.80462941 14.75390625 15.359375 C17.49154106 19.78386181 20.19265593 24.22931445 22.875 28.6875 C22.90005615 27.87482666 22.9251123 27.06215332 22.95092773 26.22485352 C23.06649118 22.56639248 23.18939584 18.90821472 23.3125 15.25 C23.35181641 13.97060547 23.39113281 12.69121094 23.43164062 11.37304688 C23.47353516 10.15810547 23.51542969 8.94316406 23.55859375 7.69140625 C23.59525146 6.56549072 23.63190918 5.4395752 23.66967773 4.27954102 C23.875 1.6875 23.875 1.6875 24.875 0.6875 C31.40042373 0.45021186 31.40042373 0.45021186 33.875 1.6875 C33.9255963 8.05953593 33.96068957 14.4315203 33.98486328 20.80371094 C33.99493789 22.97267594 34.00859798 25.14162731 34.02587891 27.31054688 C34.05006323 30.42321126 34.06146832 33.53569651 34.0703125 36.6484375 C34.08063507 37.622435 34.09095764 38.5964325 34.10159302 39.59994507 C34.10181961 40.95111923 34.10181961 40.95111923 34.10205078 42.32958984 C34.106492 43.12456879 34.11093323 43.91954773 34.11550903 44.73861694 C33.875 46.6875 33.875 46.6875 31.875 48.6875 C28.5625 49.125 28.5625 49.125 24.875 48.6875 C19.99174299 44.67364149 17.01607402 39.4720763 13.75 34.125 C12.70721576 32.43527959 11.66299368 30.74644549 10.6171875 29.05859375 C10.1619873 28.31536865 9.70678711 27.57214355 9.23779297 26.80639648 C7.88274569 24.69954315 6.3779951 22.69149347 4.875 20.6875 C4.545 29.5975 4.215 38.5075 3.875 47.6875 C1.14252652 49.05373674 -1.10698902 48.815926 -4.125 48.6875 C-5.69800328 47.11449672 -5.25225504 45.55065955 -5.25439453 43.3671875 C-5.25754669 42.44953613 -5.26069885 41.53188477 -5.26394653 40.58642578 C-5.2619223 39.58853027 -5.25989807 38.59063477 -5.2578125 37.5625 C-5.25876923 36.54526855 -5.25972595 35.52803711 -5.26071167 34.47998047 C-5.26139361 32.32454364 -5.25953835 30.16910478 -5.25537109 28.01367188 C-5.25002305 24.70177629 -5.25531563 21.39001633 -5.26171875 18.078125 C-5.26105797 15.98958303 -5.25977681 13.90104115 -5.2578125 11.8125 C-5.25983673 10.81460449 -5.26186096 9.81670898 -5.26394653 8.78857422 C-5.26079437 7.87092285 -5.25764221 6.95327148 -5.25439453 6.0078125 C-5.25359894 5.19586426 -5.25280334 4.38391602 -5.25198364 3.54736328 C-5.01916793 0.13743272 -3.04691984 0.31502053 0 0 Z " fill="#221E1F" transform="translate(589.125,148.3125)"/>
<path d="M0 0 C1.35158203 0.00483398 1.35158203 0.00483398 2.73046875 0.00976562 C4.04724609 -0.0144043 4.04724609 -0.0144043 5.390625 -0.0390625 C12.24615714 -0.04415576 18.07429044 0.83514496 23.54296875 5.32226562 C26.59322134 9.22658894 26.6194608 13.55615757 26.10546875 18.32226562 C24.32259485 22.45102623 21.78128699 24.77746838 18.10546875 27.32226562 C17.44546875 27.32226562 16.78546875 27.32226562 16.10546875 27.32226562 C16.76675781 28.41925781 17.42804688 29.51625 18.109375 30.64648438 C18.96300186 32.1004642 19.81582463 33.55491631 20.66796875 35.00976562 C21.32442383 36.09161133 21.32442383 36.09161133 21.99414062 37.1953125 C25.15530251 42.64644992 25.15530251 42.64644992 24.8828125 46.34179688 C24.62628906 46.99535156 24.36976563 47.64890625 24.10546875 48.32226562 C17.56436463 48.6925168 17.56436463 48.6925168 15.52563477 47.04760742 C14.06701414 45.27554761 12.87097066 43.50004632 11.6953125 41.52929688 C11.26283203 40.81708984 10.83035156 40.10488281 10.38476562 39.37109375 C9.48402928 37.8698665 8.58562118 36.36724004 7.68945312 34.86328125 C7.25826172 34.15494141 6.82707031 33.44660156 6.3828125 32.71679688 C5.99343506 32.06557861 5.60405762 31.41436035 5.20288086 30.7434082 C4.84073486 30.27443115 4.47858887 29.8054541 4.10546875 29.32226562 C3.44546875 29.32226562 2.78546875 29.32226562 2.10546875 29.32226562 C1.77546875 35.26226562 1.44546875 41.20226562 1.10546875 47.32226562 C-1.65703161 48.7035158 -3.84184224 48.51305869 -6.89453125 48.32226562 C-9.30079345 45.91600342 -9.14654584 45.37119385 -9.15332031 42.08789062 C-9.15962463 41.21358398 -9.16592896 40.33927734 -9.17242432 39.43847656 C-9.16837585 38.49262695 -9.16432739 37.54677734 -9.16015625 36.57226562 C-9.1620697 35.60321289 -9.16398315 34.63416016 -9.16595459 33.63574219 C-9.16731704 31.58463278 -9.16361643 29.53351477 -9.15527344 27.48242188 C-9.14457484 24.33509023 -9.15516679 21.18832942 -9.16796875 18.04101562 C-9.16664717 16.05143103 -9.1640848 14.06184678 -9.16015625 12.07226562 C-9.16420471 11.12641602 -9.16825317 10.18056641 -9.17242432 9.20605469 C-9.16612 8.33174805 -9.15981567 7.45744141 -9.15332031 6.55664062 C-9.15172913 5.78545898 -9.15013794 5.01427734 -9.14849854 4.21972656 C-8.4650352 -0.88662005 -4.01222548 0.03308432 0 0 Z M3.10546875 9.32226562 C0.53859508 13.17257613 1.27258151 14.90796326 2.10546875 19.32226562 C8.1363801 19.79757453 8.1363801 19.79757453 13.66796875 17.82226562 C14.14234375 17.32726562 14.61671875 16.83226562 15.10546875 16.32226562 C14.77546875 14.34226563 14.44546875 12.36226562 14.10546875 10.32226562 C10.47546875 9.99226562 6.84546875 9.66226563 3.10546875 9.32226562 Z " fill="#221E1F" transform="translate(450.89453125,148.677734375)"/>
<path d="M0 0 C3.5625 0.1875 3.5625 0.1875 5.5625 2.1875 C5.70807157 5.10475418 5.74848967 7.90064805 5.6875 10.8125 C5.64625 13.57625 5.605 16.34 5.5625 19.1875 C11.1725 19.1875 16.7825 19.1875 22.5625 19.1875 C22.5625 13.2475 22.5625 7.3075 22.5625 1.1875 C25.51914519 -0.2908226 28.30479737 0.12717217 31.5625 0.1875 C32.71750332 2.49750664 32.70086909 3.85084973 32.72363281 6.421875 C32.73324036 7.29618164 32.7428479 8.17048828 32.75274658 9.07128906 C32.75699646 10.01713867 32.76124634 10.96298828 32.765625 11.9375 C32.77132507 12.90655273 32.77702515 13.87560547 32.78289795 14.87402344 C32.79235248 16.92511908 32.79888372 18.97622994 32.80273438 21.02734375 C32.81246059 24.17474584 32.84348812 27.32150071 32.875 30.46875 C32.88152781 32.45832944 32.88677915 34.44791357 32.890625 36.4375 C32.9029718 37.38334961 32.9153186 38.32919922 32.92803955 39.30371094 C32.92503845 40.17801758 32.92203735 41.05232422 32.91894531 41.953125 C32.92441376 43.10989746 32.92441376 43.10989746 32.92999268 44.29003906 C32.80872009 44.91620117 32.68744751 45.54236328 32.5625 46.1875 C29.5625 48.1875 29.5625 48.1875 22.5625 47.1875 C22.5625 41.2475 22.5625 35.3075 22.5625 29.1875 C16.9525 29.1875 11.3425 29.1875 5.5625 29.1875 C5.64154591 34.69233671 5.64154591 34.69233671 5.74267578 40.19677734 C5.75723738 42.19453478 5.66206726 44.19217217 5.5625 46.1875 C3.5625 48.1875 3.5625 48.1875 0.5625 48.375 C-2.4375 48.1875 -2.4375 48.1875 -4.4375 47.1875 C-4.46277002 40.65471214 -4.48033292 34.12193679 -4.49243164 27.58911133 C-4.49747317 25.36482268 -4.50430623 23.14053737 -4.51293945 20.91625977 C-4.52501298 17.72671691 -4.53072996 14.53721771 -4.53515625 11.34765625 C-4.54031754 10.34662369 -4.54547882 9.34559113 -4.55079651 8.31422424 C-4.55087204 7.39334518 -4.55094757 6.47246613 -4.55102539 5.52368164 C-4.553246 4.70871719 -4.55546661 3.89375275 -4.55775452 3.05409241 C-4.34097324 -0.31078976 -3.47438598 0.18951196 0 0 Z " fill="#221E1F" transform="translate(334.4375,148.8125)"/>
<path d="M0 0 C0.66209473 -0.00095673 1.32418945 -0.00191345 2.00634766 -0.00289917 C3.40852961 -0.00358076 4.8107147 -0.00172792 6.21289062 0.00244141 C8.36595713 0.00779004 10.51881502 0.0024958 12.671875 -0.00390625 C14.03125046 -0.00324546 15.3906258 -0.00196429 16.75 0 C18.61785156 0.00169189 18.61785156 0.00169189 20.5234375 0.00341797 C23.375 0.1328125 23.375 0.1328125 24.375 1.1328125 C24.5625 4.5703125 24.5625 4.5703125 24.375 8.1328125 C22.375 10.1328125 22.375 10.1328125 20.31201172 10.35986328 C19.07088623 10.34415283 19.07088623 10.34415283 17.8046875 10.328125 C16.46083984 10.31845703 16.46083984 10.31845703 15.08984375 10.30859375 C14.15269531 10.29183594 13.21554687 10.27507812 12.25 10.2578125 C10.83267578 10.24427734 10.83267578 10.24427734 9.38671875 10.23046875 C7.04937173 10.20685918 4.71215451 10.17098744 2.375 10.1328125 C2.375 13.1028125 2.375 16.0728125 2.375 19.1328125 C3.57898438 19.10960937 4.78296875 19.08640625 6.0234375 19.0625 C7.59895215 19.04374387 9.17447348 19.02554351 10.75 19.0078125 C11.5440625 18.99105469 12.338125 18.97429687 13.15625 18.95703125 C15.22992015 18.93945777 17.30383241 19.02946082 19.375 19.1328125 C20.035 19.7928125 20.695 20.4528125 21.375 21.1328125 C21.045 23.4428125 20.715 25.7528125 20.375 28.1328125 C14.435 28.1328125 8.495 28.1328125 2.375 28.1328125 C2.375 31.4328125 2.375 34.7328125 2.375 38.1328125 C3.87933594 38.12121094 5.38367188 38.10960937 6.93359375 38.09765625 C8.89322793 38.08828001 10.85286345 38.07917963 12.8125 38.0703125 C14.30233398 38.05774414 14.30233398 38.05774414 15.82226562 38.04492188 C16.76650391 38.04169922 17.71074219 38.03847656 18.68359375 38.03515625 C19.55814209 38.02991943 20.43269043 38.02468262 21.33374023 38.01928711 C23.375 38.1328125 23.375 38.1328125 24.375 39.1328125 C24.5625 42.5703125 24.5625 42.5703125 24.375 46.1328125 C22.375 48.1328125 22.375 48.1328125 19.609375 48.37573242 C17.88460938 48.36956909 17.88460938 48.36956909 16.125 48.36328125 C14.8771875 48.36134766 13.629375 48.35941406 12.34375 48.35742188 C10.37921875 48.33905273 10.37921875 48.33905273 8.375 48.3203125 C7.0653125 48.31966797 5.755625 48.31902344 4.40625 48.31835938 C-5.34456465 48.27303017 -5.34456465 48.27303017 -7.625 47.1328125 C-7.65027002 40.60002464 -7.66783292 34.06724929 -7.67993164 27.53442383 C-7.68497317 25.31013518 -7.69180623 23.08584987 -7.70043945 20.86157227 C-7.71251298 17.67202941 -7.71822996 14.48253021 -7.72265625 11.29296875 C-7.72781754 10.29193619 -7.73297882 9.29090363 -7.73829651 8.25953674 C-7.73837204 7.33865768 -7.73844757 6.41777863 -7.73852539 5.46899414 C-7.740746 4.65402969 -7.74296661 3.83906525 -7.74525452 2.99940491 C-7.46601006 -1.33503166 -3.48909535 0.00316041 0 0 Z " fill="#221E1F" transform="translate(256.625,148.8671875)"/>
<path d="M0 0 C2.01822917 0.06510417 4.03645833 0.13020833 6.0546875 0.1953125 C9.59015793 7.93134186 12.77432101 15.79464039 15.91064453 23.69873047 C16.51011442 25.20509909 17.11335063 26.70997397 17.72021484 28.21337891 C18.60566385 30.40725605 19.47981296 32.60533671 20.3515625 34.8046875 C20.75927887 35.8063797 20.75927887 35.8063797 21.17523193 36.82830811 C22.57999408 40.4132483 23.37445503 43.33777015 23.0546875 47.1953125 C16.4296875 48.4453125 16.4296875 48.4453125 13.0546875 46.1953125 C11.78800861 43.59940267 10.9843068 40.93990281 10.0546875 38.1953125 C4.4446875 37.8653125 -1.1653125 37.5353125 -6.9453125 37.1953125 C-7.3990625 38.8246875 -7.8528125 40.4540625 -8.3203125 42.1328125 C-9.09375 44.91015625 -9.09375 44.91015625 -9.9453125 47.1953125 C-12.68436595 48.56483923 -14.91618582 48.32152611 -17.9453125 48.1953125 C-18.6053125 47.8653125 -19.2653125 47.5353125 -19.9453125 47.1953125 C-19.37229335 41.44555919 -17.78308165 36.61593355 -15.63671875 31.26953125 C-15.30993637 30.44072952 -14.98315399 29.6119278 -14.64646912 28.75801086 C-13.95832869 27.0178018 -13.26645569 25.27906457 -12.57104492 23.54174805 C-11.50561883 20.87732657 -10.45414919 18.20770031 -9.40429688 15.53710938 C-8.73258826 13.84342558 -8.06008989 12.15005475 -7.38671875 10.45703125 C-7.07207169 9.65810959 -6.75742462 8.85918793 -6.4332428 8.03605652 C-3.33485404 0.3348247 -3.33485404 0.3348247 0 0 Z M1.0546875 17.1953125 C0.5596875 18.2678125 0.0646875 19.3403125 -0.4453125 20.4453125 C-0.72375 21.04859375 -1.0021875 21.651875 -1.2890625 22.2734375 C-2.16074174 24.48774086 -2.16074174 24.48774086 -1.9453125 28.1953125 C0.6946875 28.1953125 3.3346875 28.1953125 6.0546875 28.1953125 C5.44770007 24.06779801 4.01657959 20.8631977 2.0546875 17.1953125 C1.7246875 17.1953125 1.3946875 17.1953125 1.0546875 17.1953125 Z " fill="#221E1F" transform="translate(554.9453125,148.8046875)"/>
<path d="M0 0 C1.796875 1.51171875 1.796875 1.51171875 3 3 C2.8448287 5.48274086 2.15643214 6.7731734 0.75 8.8125 C-1 10 -1 10 -3.4375 9.8125 C-6 9 -6 9 -7.8125 7.9375 C-11.17733412 6.49542824 -14.43795623 6.44055376 -18 7 C-21.58558834 8.94868932 -22.73340705 10.39410693 -24.375 14.125 C-25.33119627 20.05341685 -25.11177584 25.45879808 -22.6875 31 C-20.84436749 33.18445335 -19.63477644 33.95272375 -17 35 C-12.63367009 35.16403028 -8.93955885 34.56373531 -5.1875 32.3125 C-4.465625 31.879375 -3.74375 31.44625 -3 31 C-0.25122469 31.86390081 0.95519649 32.95519649 3 35 C3 37.375 3 37.375 2 40 C-3.34521067 44.35075287 -8.91058101 46.54338653 -15.859375 46.3046875 C-23.13379836 45.26927688 -27.90970614 41.66100512 -32.58984375 36.1953125 C-36.93785088 29.42639281 -36.82094246 21.76474741 -36 14 C-33.5901814 5.95292718 -28.78041466 0.76760849 -21.625 -3.375 C-13.77259741 -5.24461966 -7.07231688 -3.81700857 0 0 Z " fill="#221E1F" transform="translate(320,152)"/>
<path d="M0 0 C0.71353638 0.00202423 1.42707275 0.00404846 2.16223145 0.00613403 C2.89091431 0.00517731 3.61959717 0.00422058 4.37036133 0.00323486 C5.91377855 0.00255318 7.45719861 0.00440666 9.00061035 0.00857544 C11.37095544 0.01392391 13.74111104 0.00863011 16.1114502 0.00222778 C17.60754437 0.00288857 19.10363842 0.00416973 20.59973145 0.00613403 C21.31326782 0.0041098 22.0268042 0.00208557 22.76196289 0 C27.76602953 0.02399462 27.76602953 0.02399462 28.88098145 1.13894653 C29.02213306 3.80953504 28.92345252 6.46326891 28.88098145 9.13894653 C22.94098145 9.63394653 22.94098145 9.63394653 16.88098145 10.13894653 C16.55098145 22.34894653 16.22098145 34.55894653 15.88098145 47.13894653 C13.11848109 48.52019671 10.93367045 48.3297396 7.88098145 48.13894653 C5.88098145 46.13894653 5.88098145 46.13894653 5.65393066 42.51541138 C5.65424788 40.96019964 5.66557846 39.40496603 5.68566895 37.84988403 C5.68849884 37.03146027 5.69132874 36.2130365 5.69424438 35.36981201 C5.70545613 32.7510426 5.73056216 30.13261289 5.75598145 27.51394653 C5.76600998 25.74051397 5.77513605 23.96707605 5.7833252 22.19363403 C5.80539867 17.84194027 5.839935 13.49050103 5.88098145 9.13894653 C1.92098145 9.13894653 -2.03901855 9.13894653 -6.11901855 9.13894653 C-6.2166748 2.98660278 -6.2166748 2.98660278 -6.11901855 1.13894653 C-4.41408974 -0.56598228 -2.27367595 0.01090233 0 0 Z " fill="#221E1F" transform="translate(215.1190185546875,148.86105346679688)"/>
<path d="M0 0 C2.95857409 -0.05379226 5.91617721 -0.09357093 8.875 -0.125 C9.71675781 -0.14175781 10.55851562 -0.15851563 11.42578125 -0.17578125 C12.23144531 -0.18222656 13.03710938 -0.18867188 13.8671875 -0.1953125 C14.98262939 -0.21102295 14.98262939 -0.21102295 16.12060547 -0.22705078 C18 0 18 0 20 2 C20.125 4.625 20.125 4.625 20 7 C19.34 7 18.68 7 18 7 C18.66 8.32 19.32 9.64 20 11 C21.65 7.37 23.3 3.74 25 0 C25.99 0 26.98 0 28 0 C28.30292969 0.71027344 28.60585938 1.42054688 28.91796875 2.15234375 C29.33691406 3.07144531 29.75585938 3.99054688 30.1875 4.9375 C30.79658203 6.31228516 30.79658203 6.31228516 31.41796875 7.71484375 C32.8223391 10.24817296 32.8223391 10.24817296 35.67578125 10.81640625 C36.82626953 10.90728516 36.82626953 10.90728516 38 11 C36.74458443 8.48916886 35.49936512 8.12874554 33 7 C33 5.02 33 3.04 33 1 C38.80230929 -0.00012445 44.43167357 -0.15066179 50.3125 -0.125 C51.67084961 -0.13080078 51.67084961 -0.13080078 53.05664062 -0.13671875 C53.92095703 -0.13542969 54.78527344 -0.13414062 55.67578125 -0.1328125 C56.45864502 -0.13168457 57.24150879 -0.13055664 58.0480957 -0.12939453 C60 0 60 0 62 1 C62 2.98 62 4.96 62 7 C61.34 7 60.68 7 60 7 C60.66 8.98 61.32 10.96 62 13 C60.68 13 59.36 13 58 13 C57.505 12.01 57.505 12.01 57 11 C56.67 11.66 56.34 12.32 56 13 C54.68 13 53.36 13 52 13 C52 9.7 52 6.4 52 3 C51.01 3 50.02 3 49 3 C49 6.3 49 9.6 49 13 C47.68 13 46.36 13 45 13 C45 9.7 45 6.4 45 3 C43.6078125 3.2784375 43.6078125 3.2784375 42.1875 3.5625 C39 4 39 4 36 3 C36 3.66 36 4.32 36 5 C38.475 5.495 38.475 5.495 41 6 C41.625 8.875 41.625 8.875 42 12 C41.34 12.66 40.68 13.32 40 14 C37.3984375 13.9765625 37.3984375 13.9765625 34.375 13.625 C33.37210937 13.51414063 32.36921875 13.40328125 31.3359375 13.2890625 C30.17964844 13.14597656 30.17964844 13.14597656 29 13 C29 12.34 29 11.68 29 11 C27.35 11 25.7 11 24 11 C24 11.66 24 12.32 24 13 C21.36 13 18.72 13 16 13 C15.67 12.34 15.34 11.68 15 11 C14.67 11.66 14.34 12.32 14 13 C12.68 13 11.36 13 10 13 C10 9.7 10 6.4 10 3 C8.02 3 6.04 3 4 3 C4 3.66 4 4.32 4 5 C5.65 5 7.3 5 9 5 C9 5.99 9 6.98 9 8 C7.35 8 5.7 8 4 8 C4 9.65 4 11.3 4 13 C2.68 13 1.36 13 0 13 C0 8.71 0 4.42 0 0 Z M14 3 C14 3.66 14 4.32 14 5 C14.99 4.67 15.98 4.34 17 4 C16.01 3.67 15.02 3.34 14 3 Z M56 3 C56 3.66 56 4.32 56 5 C56.99 4.67 57.98 4.34 59 4 C58.01 3.67 57.02 3.34 56 3 Z M26 6 C27 8 27 8 27 8 Z " fill="#221E1F" transform="translate(471,209)"/>
<path d="M0 0 C3.3 0 6.6 0 10 0 C10 17.16 10 34.32 10 52 C6.7 52 3.4 52 0 52 C0 34.84 0 17.68 0 0 Z " fill="#20A849" transform="translate(424,196)"/>
<path d="M0 0 C3.3 0 6.6 0 10 0 C10 16.83 10 33.66 10 51 C6.7 51 3.4 51 0 51 C0 34.17 0 17.34 0 0 Z " fill="#1AA1C1" transform="translate(424,94)"/>
<path d="M0 0 C0.99 0 1.98 0 3 0 C3.04898438 0.63808594 3.09796875 1.27617187 3.1484375 1.93359375 C3.22320313 2.75988281 3.29796875 3.58617187 3.375 4.4375 C3.44460938 5.26121094 3.51421875 6.08492187 3.5859375 6.93359375 C3.72257813 7.61550781 3.85921875 8.29742187 4 9 C4.66 9.33 5.32 9.66 6 10 C6.33 6.7 6.66 3.4 7 0 C8.32 0.33 9.64 0.66 11 1 C11.33 1.66 11.66 2.32 12 3 C12.37125 2.505 12.7425 2.01 13.125 1.5 C15.76091932 -0.60873546 17.71068204 -0.20995647 21 0 C21.66 0 22.32 0 23 0 C27.33333333 0 31.66666667 0 36 0 C36.04898438 0.63808594 36.09796875 1.27617187 36.1484375 1.93359375 C36.22320313 2.75988281 36.29796875 3.58617187 36.375 4.4375 C36.47941406 5.67306641 36.47941406 5.67306641 36.5859375 6.93359375 C36.79089844 7.95646484 36.79089844 7.95646484 37 9 C37.66 9.33 38.32 9.66 39 10 C39.33 6.7 39.66 3.4 40 0 C41.32 0.33 42.64 0.66 44 1 C44.31240876 10.37226277 44.31240876 10.37226277 42 13 C38.94311864 13.97560044 37.05926655 14.52963327 34.125 13.0625 C32.32163372 9.75632849 32.81676305 6.72581793 33 3 C31.68 3 30.36 3 29 3 C29 6.3 29 9.6 29 13 C28.01 13 27.02 13 26 13 C26 9.7 26 6.4 26 3 C22.7 3.33 19.4 3.66 16 4 C16 5.65 16 7.3 16 9 C16.78375 8.938125 17.5675 8.87625 18.375 8.8125 C19.24125 8.874375 20.1075 8.93625 21 9 C21.99 10.485 21.99 10.485 23 12 C20 14 20 14 17 13.8125 C13.99224715 12.99790027 12.88178097 12.4044979 11 10 C10.608125 10.66 10.21625 11.32 9.8125 12 C8 14 8 14 5.5 14.4375 C2.51787165 13.91562754 1.78559766 13.40824122 0 11 C-0.29296875 8.30078125 -0.29296875 8.30078125 -0.1875 5.3125 C-0.16042969 4.31863281 -0.13335938 3.32476562 -0.10546875 2.30078125 C-0.07066406 1.54152344 -0.03585937 0.78226563 0 0 Z " fill="#221D1F" transform="translate(534,209)"/>
<path d="M0 0 C1.99097846 2.98646769 2.94124926 5.59687262 4 9 C7.3 9.33 10.6 9.66 14 10 C12.38405168 12.04119788 10.7143618 14.04072937 9 16 C8.34 16 7.68 16 7 16 C7.66 19.63 8.32 23.26 9 27 C8.278125 26.54625 7.55625 26.0925 6.8125 25.625 C5.884375 25.08875 4.95625 24.5525 4 24 C2.824375 23.2575 2.824375 23.2575 1.625 22.5 C-0.95327738 21.72530775 -0.95327738 21.72530775 -2.87109375 22.9921875 C-4.6515881 24.26038669 -6.34208667 25.57620123 -8 27 C-9.27351308 24.45297384 -8.80191925 23.5717055 -8.0625 20.875 C-7.86785156 20.15054688 -7.67320312 19.42609375 -7.47265625 18.6796875 C-7.31667969 18.12539062 -7.16070312 17.57109375 -7 17 C-7.5053125 16.57847656 -8.010625 16.15695313 -8.53125 15.72265625 C-9.1809375 15.17480469 -9.830625 14.62695312 -10.5 14.0625 C-11.1496875 13.51722656 -11.799375 12.97195312 -12.46875 12.41015625 C-13.22671875 11.71212891 -13.22671875 11.71212891 -14 11 C-14 10.67 -14 10.34 -14 10 C-8.555 9.505 -8.555 9.505 -3 9 C-2.01 6.03 -1.02 3.06 0 0 Z " fill="#17A1C1" transform="translate(429,62)"/>
<path d="M0 0 C1.32 0 2.64 0 4 0 C4 20.79 4 41.58 4 63 C2.68 63 1.36 63 0 63 C0 42.21 0 21.42 0 0 Z " fill="#6C6D70" transform="translate(672,148)"/>
<path d="M0 0 C0.33 2.97 0.66 5.94 1 9 C2.258125 8.79375 3.51625 8.5875 4.8125 8.375 C8.4014758 7.78664331 8.75073878 7.83382585 12 10 C13.2062252 13.61867559 13.10816918 16.92506251 13.0625 20.6875 C13.05798828 21.38939453 13.05347656 22.09128906 13.04882812 22.81445312 C13.03706927 24.54300538 13.01913454 26.27151365 13 28 C11.35 28 9.7 28 8 28 C7.67 23.05 7.34 18.1 7 13 C2.36980013 13.4452998 2.36980013 13.4452998 1 15 C0.76518307 17.18292774 0.58636677 19.37203174 0.4375 21.5625 C0.31181641 23.35880859 0.31181641 23.35880859 0.18359375 25.19140625 C0.12300781 26.11824219 0.06242188 27.04507813 0 28 C-1.32 28 -2.64 28 -4 28 C-4 19.09 -4 10.18 -4 1 C-2 0 -2 0 0 0 Z " fill="#1AA1C1" transform="translate(716,157)"/>
<path d="M0 0 C0.33 4.62 0.66 9.24 1 14 C2.98 12.02 4.96 10.04 7 8 C7.99 8.33 8.98 8.66 10 9 C9.42655063 11.86724686 9.1385485 12.8614515 7 15 C7.25123097 19.52215751 9.48904916 22.35507136 12 26 C12 26.66 12 27.32 12 28 C10.35 28 8.7 28 7 28 C5.68 25.69 4.36 23.38 3 21 C2.34 21 1.68 21 1 21 C0.67 23.31 0.34 25.62 0 28 C-1.32 28 -2.64 28 -4 28 C-4 19.09 -4 10.18 -4 1 C-2 0 -2 0 0 0 Z " fill="#1AA2C1" transform="translate(780,157)"/>
<path d="M0 0 C1.75 1.1875 1.75 1.1875 3.75 4.1875 C4.5537907 9.17946332 4.50248588 13.01174082 1.75 17.3125 C-2.09934165 19.71833853 -4.8282649 20.13437661 -9.25 19.1875 C-12.1875 17.625 -12.1875 17.625 -14.25 15.1875 C-15.53928214 10.91675293 -15.39252015 8.64506468 -14.0625 4.375 C-12.25 1.1875 -12.25 1.1875 -10.4375 -0.25 C-6.7552432 -1.19686604 -3.59701113 -1.29892069 0 0 Z M-9 4.3125 C-10.80775998 7.02413997 -10.58220081 8.99837222 -10.25 12.1875 C-9.26 13.6725 -9.26 13.6725 -8.25 15.1875 C-5.42809019 15.62163997 -3.87012321 15.53890315 -1.375 14.125 C0.43060316 11.01535011 -0.45047512 8.57010527 -1.25 5.1875 C-1.91 4.5275 -2.57 3.8675 -3.25 3.1875 C-7.03595012 2.82699494 -7.03595012 2.82699494 -9 4.3125 Z " fill="#19A1C1" transform="translate(890.25,165.8125)"/>
<path d="M0 0 C2.375 1.6875 2.375 1.6875 4 4 C4 5.98 4 7.96 4 10 C0.04 10 -3.92 10 -8 10 C-7.34 11.32 -6.68 12.64 -6 14 C-3.03 14 -0.06 14 3 14 C3 15.32 3 16.64 3 18 C-0.49202465 19.74601232 -4.18982279 19.55838804 -8 19 C-11.0625 17.0625 -11.0625 17.0625 -13 14 C-13.94115647 9.35303992 -13.64851527 6.07340458 -11.1875 2 C-7.45153228 -1.41574191 -4.71978093 -1.25218678 0 0 Z M-6 3 C-6.66 4.32 -7.32 5.64 -8 7 C-5.36 7 -2.72 7 0 7 C-0.33 6.01 -0.66 5.02 -1 4 C-2.65 3.67 -4.3 3.34 -6 3 Z " fill="#1AA1C1" transform="translate(861,166)"/>
<path d="M0 0 C3.45492545 3.10943291 3.17848623 5.07091736 4 10 C-0.29 10 -4.58 10 -9 10 C-8.34 11.32 -7.68 12.64 -7 14 C-4.03 14 -1.06 14 2 14 C2 15.32 2 16.64 2 18 C-1.50317094 19.75158547 -5.18694726 19.6837198 -9 19 C-12.64568185 15.94953151 -13.8388089 14.14848661 -14.5 9.4375 C-13.86393419 5.06454758 -12.75870022 2.38183589 -9.25 -0.375 C-5.86406073 -1.31553869 -3.37798992 -0.85985198 0 0 Z M-7 3 C-7.66 4.32 -8.32 5.64 -9 7 C-6.36 7 -3.72 7 -1 7 C-1.66 5.68 -2.32 4.36 -3 3 C-4.32 3 -5.64 3 -7 3 Z " fill="#1AA1C1" transform="translate(745,166)"/>
<path d="M0 0 C3 1 3 1 4.16796875 3.28515625 C5.11197917 5.85677083 6.05598958 8.42838542 7 11 C8.32 7.7 9.64 4.4 11 1 C12.65 1 14.3 1 16 1 C14.93100669 4.21328932 13.84225971 7.4195521 12.75 10.625 C12.44964844 11.52863281 12.14929688 12.43226563 11.83984375 13.36328125 C10.0991114 18.43733088 8.38049766 22.80164 5 27 C2.25 27.875 2.25 27.875 0 28 C0.33 26.35 0.66 24.7 1 23 C1.66 23 2.32 23 3 23 C3.7478385 16.56858894 1.53978045 11.69741447 -0.90625 5.79296875 C-2 3 -2 3 -2 1 C-1.34 0.67 -0.68 0.34 0 0 Z " fill="#19A1C1" transform="translate(794,165)"/>
<path d="M0 0 C6.93 0 13.86 0 21 0 C21.33 1.32 21.66 2.64 22 4 C19.03 4 16.06 4 13 4 C13 11.59 13 19.18 13 27 C11.35 27 9.7 27 8 27 C8 19.41 8 11.82 8 4 C5.36 4 2.72 4 0 4 C0 2.68 0 1.36 0 0 Z " fill="#1AA1C1" transform="translate(688,158)"/>
<path d="M0 0 C6.93 0 13.86 0 21 0 C21.33 1.32 21.66 2.64 22 4 C19.03 4 16.06 4 13 4 C13 11.59 13 19.18 13 27 C11.35 27 9.7 27 8 27 C8 19.41 8 11.82 8 4 C5.36 4 2.72 4 0 4 C0 2.68 0 1.36 0 0 Z " fill="#1AA1C1" transform="translate(916,158)"/>
<path d="M0 0 C1.32 0 2.64 0 4 0 C4.33 4.95 4.66 9.9 5 15 C6.98 14.34 8.96 13.68 11 13 C11.33 8.71 11.66 4.42 12 0 C13.65 0 15.3 0 17 0 C17 6.27 17 12.54 17 19 C15.35 18.67 13.7 18.34 12 18 C11.34 18.33 10.68 18.66 10 19 C3.77195191 19.45294895 3.77195191 19.45294895 1.2890625 17.99609375 C-0.7602846 14.82271081 -0.3116371 11.45703789 -0.1875 7.8125 C-0.17396484 7.06291016 -0.16042969 6.31332031 -0.14648438 5.54101562 C-0.11118539 3.69370233 -0.05737917 1.84675934 0 0 Z " fill="#1AA1C0" transform="translate(952,166)"/>
<path d="M0 0 C2.00732701 1.5258269 2.89128274 2.39313168 3.34057617 4.90112305 C3.32486572 5.59761963 3.30915527 6.29411621 3.29296875 7.01171875 C3.28330078 7.76904297 3.27363281 8.52636719 3.26367188 9.30664062 C3.23853516 10.09232422 3.21339844 10.87800781 3.1875 11.6875 C3.16719727 12.88342773 3.16719727 12.88342773 3.14648438 14.10351562 C3.11117089 16.06929967 3.05736447 18.03473582 3 20 C1.68 20 0.36 20 -1 20 C-1.33 15.05 -1.66 10.1 -2 5 C-4.31 5.33 -6.62 5.66 -9 6 C-9 10.62 -9 15.24 -9 20 C-10.32 20 -11.64 20 -13 20 C-13 13.73 -13 7.46 -13 1 C-11.68 1.33 -10.36 1.66 -9 2 C-5.53076119 -0.31282587 -4.07794425 -0.42478586 0 0 Z " fill="#1AA1C1" transform="translate(842,165)"/>
<path d="M0 0 C0.33 0.66 0.66 1.32 1 2 C0.67 2.66 0.34 3.32 0 4 C-2.31 4 -4.62 4 -7 4 C-7.33 4.66 -7.66 5.32 -8 6 C-7.071875 6.28875 -6.14375 6.5775 -5.1875 6.875 C-2 8 -2 8 1 10 C1.9375 12.375 1.9375 12.375 2 15 C0.625 17.3125 0.625 17.3125 -2 19 C-5.77995583 19.48254755 -9.54301435 19.72849282 -13 18 C-12.67 16.68 -12.34 15.36 -12 14 C-9.03 14.33 -6.06 14.66 -3 15 C-4.77260299 11.80361167 -4.77260299 11.80361167 -8 10.5 C-11 9 -11 9 -13 6 C-12.875 3.4375 -12.875 3.4375 -12 1 C-8.46050159 -2.1147586 -4.266558 -0.83932289 0 0 Z " fill="#1AA2C1" transform="translate(984,166)"/>
<path d="M0 0 C0 1.32 0 2.64 0 4 C-2.31 4 -4.62 4 -7 4 C-7.33 4.66 -7.66 5.32 -8 6 C-6.3603125 6.4021875 -6.3603125 6.4021875 -4.6875 6.8125 C0.39370079 8.4488189 0.39370079 8.4488189 2 11 C2.42408618 13.8272412 2.50731102 15.30430639 0.80078125 17.64453125 C-1.62647555 19.47155535 -3.18615116 19.30443567 -6.1875 19.1875 C-7.53908203 19.14689453 -7.53908203 19.14689453 -8.91796875 19.10546875 C-9.60503906 19.07066406 -10.29210937 19.03585938 -11 19 C-11.33 17.68 -11.66 16.36 -12 15 C-8.8035914 13.93453047 -6.34252724 13.92572162 -3 14 C-5.21237574 12.27926331 -7.20779288 10.90082612 -9.75 9.6875 C-12 8 -12 8 -12.5625 5 C-12 2 -12 2 -10.5 0.0625 C-6.74062617 -1.53523388 -3.98734193 -0.73101269 0 0 Z " fill="#1AA2C1" transform="translate(771,166)"/>
<path d="M0 0 C-0.33 1.32 -0.66 2.64 -1 4 C-2.32 4 -3.64 4 -5 4 C-5 5.32 -5 6.64 -5 8 C-3.68 8.33 -2.36 8.66 -1 9 C-1 9.66 -1 10.32 -1 11 C-2.32 11 -3.64 11 -5 11 C-5 16.28 -5 21.56 -5 27 C-6.65 27 -8.3 27 -10 27 C-10 21.72 -10 16.44 -10 11 C-10.99 11 -11.98 11 -13 11 C-13 10.01 -13 9.02 -13 8 C-12.01 8 -11.02 8 -10 8 C-9.87625 6.865625 -9.7525 5.73125 -9.625 4.5625 C-9.41875 3.386875 -9.2125 2.21125 -9 1 C-6.04335481 -0.4783226 -3.25770263 -0.06032783 0 0 Z " fill="#1AA2C1" transform="translate(908,158)"/>
<path d="M0 0 C1.875 0.1875 1.875 0.1875 4 1 C5.25 3.5625 5.25 3.5625 6 6 C6.99 4.02 7.98 2.04 9 0 C13.29 0 17.58 0 22 0 C22 0.99 22 1.98 22 3 C21.01 3 20.02 3 19 3 C19 6.3 19 9.6 19 13 C17.68 13 16.36 13 15 13 C15 9.7 15 6.4 15 3 C11.85078661 3.69030588 11.85078661 3.69030588 10.61328125 6.28515625 C10.18402344 7.20167969 9.75476563 8.11820313 9.3125 9.0625 C8.87550781 9.98160156 8.43851562 10.90070313 7.98828125 11.84765625 C7.49908203 12.91306641 7.49908203 12.91306641 7 14 C6.01 13.67 5.02 13.34 4 13 C2.83203125 10.56640625 2.83203125 10.56640625 1.8125 7.5625 C1.46832031 6.57378906 1.12414062 5.58507812 0.76953125 4.56640625 C0 2 0 2 0 0 Z " fill="#221E1F" transform="translate(453,235)"/>
<path d="M0 0 C1.65 0 3.3 0 5 0 C5 1.65 5 3.3 5 5 C5.99 5 6.98 5 8 5 C8.33 5.99 8.66 6.98 9 8 C7.68 8 6.36 8 5 8 C5 11.96 5 15.92 5 20 C6.32 20 7.64 20 9 20 C9.33 21.32 9.66 22.64 10 24 C8.72125 24.061875 7.4425 24.12375 6.125 24.1875 C5.04605469 24.23970703 5.04605469 24.23970703 3.9453125 24.29296875 C3.30335938 24.19628906 2.66140625 24.09960938 2 24 C-0.42130331 20.36804504 -0.21022785 18.61650652 -0.125 14.3125 C-0.09792969 12.54326172 -0.09792969 12.54326172 -0.0703125 10.73828125 C-0.03550781 9.38283203 -0.03550781 9.38283203 0 8 C-0.99 8 -1.98 8 -3 8 C-3 7.01 -3 6.02 -3 5 C-2.01 5 -1.02 5 0 5 C0 3.35 0 1.7 0 0 Z " fill="#19A2C1" transform="translate(989,161)"/>
<path d="M0 0 C1.3308911 2.66178221 1.11268993 4.68739396 1.09765625 7.6640625 C1.09443359 8.78554687 1.09121094 9.90703125 1.08789062 11.0625 C1.07951172 12.238125 1.07113281 13.41375 1.0625 14.625 C1.05798828 15.80835938 1.05347656 16.99171875 1.04882812 18.2109375 C1.03701467 21.14067507 1.02054258 24.07031272 1 27 C-0.65 27.33 -2.3 27.66 -4 28 C-4 19.09 -4 10.18 -4 1 C-2 0 -2 0 0 0 Z " fill="#159BCC" transform="translate(816,157)"/>
<path d="M0 0 C2.475 0.495 2.475 0.495 5 1 C8.22111592 0.61666338 8.22111592 0.61666338 11 0 C11 1.32 11 2.64 11 4 C9.35 4.66 7.7 5.32 6 6 C5.67 10.29 5.34 14.58 5 19 C3.35 19 1.7 19 0 19 C0 12.73 0 6.46 0 0 Z " fill="#19A1C1" transform="translate(939,166)"/>
<path d="M0 0 C1.32 0 2.64 0 4 0 C5.75 2.5 5.75 2.5 7 5 C7.33 3.35 7.66 1.7 8 0 C8.99 0 9.98 0 11 0 C11 4.29 11 8.58 11 13 C9.35 12.67 7.7 12.34 6 12 C5.34 11.01 4.68 10.02 4 9 C3.67 10.32 3.34 11.64 3 13 C2.01 13 1.02 13 0 13 C0 8.71 0 4.42 0 0 Z " fill="#221E1F" transform="translate(449,209)"/>
<path d="M0 0 C7 0 7 0 9.4375 1.625 C11.44814771 4.68118452 11.53520313 6.40649325 11 10 C9.45493534 12.03667615 8.27853844 12.86073078 6 14 C4.02 14 2.04 14 0 14 C0 9.38 0 4.76 0 0 Z M3 3 C3 5.64 3 8.28 3 11 C4.32 10.67 5.64 10.34 7 10 C7.77242269 8.16299211 7.77242269 8.16299211 8 6 C6.77045984 4.18700508 6.77045984 4.18700508 5 3 C4.34 3 3.68 3 3 3 Z " fill="#221E1F" transform="translate(506,235)"/>
<path d="M0 0 C6.41868512 -0.3633218 6.41868512 -0.3633218 9 1.25 C10 3 10 3 9.6875 5 C9.460625 5.66 9.23375 6.32 9 7 C9 7.99 9 8.98 9 10 C9 10.99 9 11.98 9 13 C7.0625 12.625 7.0625 12.625 5 12 C4.67 11.34 4.34 10.68 4 10 C3.67 10.99 3.34 11.98 3 13 C2.01 13 1.02 13 0 13 C0 8.71 0 4.42 0 0 Z M3 3 C3 3.66 3 4.32 3 5 C3.99 5 4.98 5 6 5 C6 4.34 6 3.68 6 3 C5.01 3 4.02 3 3 3 Z " fill="#221E1F" transform="translate(579,209)"/>
<path d="M0 0 C6.0546875 -0.1953125 6.0546875 -0.1953125 8 0 C10 2 10 2 10.25 4.5 C10 7 10 7 8 9 C6.68 9 5.36 9 4 9 C3.67 10.65 3.34 12.3 3 14 C2.01 13.67 1.02 13.34 0 13 C0 8.71 0 4.42 0 0 Z M4 3 C4 3.99 4 4.98 4 6 C4.99 5.67 5.98 5.34 7 5 C6.67 4.34 6.34 3.68 6 3 C5.34 3 4.68 3 4 3 Z " fill="#221E1F" transform="translate(443,235)"/>
<path d="M0 0 C1.65 0 3.3 0 5 0 C5 6.27 5 12.54 5 19 C3.35 18.67 1.7 18.34 0 18 C0 12.06 0 6.12 0 0 Z " fill="#19A1C2" transform="translate(820,166)"/>
<path d="M0 0 C2.97 0 5.94 0 9 0 C9 0.99 9 1.98 9 3 C7.02 3 5.04 3 3 3 C3 3.66 3 4.32 3 5 C4.65 5 6.3 5 8 5 C8 5.99 8 6.98 8 8 C6.35 8 4.7 8 3 8 C3 8.66 3 9.32 3 10 C4.98 10 6.96 10 9 10 C9 10.99 9 11.98 9 13 C6.03 13 3.06 13 0 13 C0 8.71 0 4.42 0 0 Z " fill="#221E1F" transform="translate(590,209)"/>
<path d="M0 0 C2.33944736 0.28730055 4.6739143 0.61936779 7 1 C6.67 1.99 6.34 2.98 6 4 C4.68 3.67 3.36 3.34 2 3 C2 3.66 2 4.32 2 5 C4.475 5.99 4.475 5.99 7 7 C7.125 9.375 7.125 9.375 7 12 C6.34 12.66 5.68 13.32 5 14 C1.375 13.625 1.375 13.625 -2 13 C-2 12.01 -2 11.02 -2 10 C-0.35 10 1.3 10 3 10 C1.35 8.68 -0.3 7.36 -2 6 C-1.125 1.125 -1.125 1.125 0 0 Z " fill="#221E1F" transform="translate(463,209)"/>
<path d="M0 0 C3.3 0 6.6 0 10 0 C10 0.99 10 1.98 10 3 C9.01 3 8.02 3 7 3 C7 6.3 7 9.6 7 13 C5.68 13 4.36 13 3 13 C3 9.7 3 6.4 3 3 C2.01 3 1.02 3 0 3 C0 2.01 0 1.02 0 0 Z " fill="#211E1F" transform="translate(495,235)"/>
<path d="M0 0 C0.99 0 1.98 0 3 0 C3 3.3 3 6.6 3 10 C4.65 10 6.3 10 8 10 C8 11.32 8 12.64 8 14 C5.36 14 2.72 14 0 14 C0 9.38 0 4.76 0 0 Z " fill="#221D1F" transform="translate(487,235)"/>
<path d="M0 0 C0.99 0 1.98 0 3 0 C3 4.29 3 8.58 3 13 C2.01 13 1.02 13 0 13 C0 8.71 0 4.42 0 0 Z " fill="#221E1F" transform="translate(444,209)"/>
<path d="M0 0 C3 0 6 0 9 0 C9 1.65 9 3.3 9 5 C6.36 5 3.72 5 1 5 C0.67 3.35 0.34 1.7 0 0 Z " fill="#7B7075" transform="translate(628,149)"/>
<path d="M0 0 C1.98 0.495 1.98 0.495 4 1 C4 2.32 4 3.64 4 5 C2.35 4.67 0.7 4.34 -1 4 C-0.67 2.68 -0.34 1.36 0 0 Z " fill="#1AA1C0" transform="translate(821,158)"/>
<path d="M0 0 C0.99 0 1.98 0 3 0 C3 0.99 3 1.98 3 3 C2.01 3 1.02 3 0 3 C0 2.01 0 1.02 0 0 Z " fill="#221D1D" transform="translate(476,244)"/>
<path d="M0 0 C0.99 0 1.98 0 3 0 C3 0.99 3 1.98 3 3 C2.01 3 1.02 3 0 3 C0 2.01 0 1.02 0 0 Z " fill="#211D1E" transform="translate(518,244)"/>
</svg>
